<svg width="122" height="122" viewBox="0 0 113 113" fill="none" xmlns="http://www.w3.org/2000/svg">
<g id="fi_910077" clip-path="url(#clip0_208_3751)">
<g id="Group">
<g id="Group_2">
<g id="Group_3">
<path id="Vector" d="M103.698 54.626C106.64 38.6482 101.838 16.6849 84.3391 6.21857C73.2873 0.0187159 60.2515 -1.62171 48.008 1.64679C31.0484 6.18195 18.5825 18.3518 14.6625 34.2007C13.7885 37.4153 13.4181 40.746 13.5648 44.0741C13.7526 46.139 14.1336 48.1819 14.7031 50.1756C15.4693 52.7129 15.8488 55.3512 15.8283 58.0017C15.7493 61.1568 13.5761 64.4304 11.6565 67.3189C9.56402 70.4712 7.75679 73.1934 8.80481 75.704C9.79944 77.4057 11.55 78.527 13.5116 78.7194C13.6246 78.7397 13.7389 78.7514 13.8536 78.7542C14.3778 78.69 14.9034 78.8639 15.2858 79.2284C15.6681 79.5929 15.8671 80.1094 15.8283 80.636C15.8283 84.5486 15.9258 86.5674 17.542 87.4932C17.401 87.7875 17.3026 88.1006 17.2496 88.4225C17.0872 89.527 17.4851 90.6397 18.3105 91.3909C19.1312 92.1859 20.1711 92.7167 21.2963 92.9151C21.3753 92.9334 21.4508 92.9473 21.5242 92.9647C21.5688 93.2447 21.5884 93.528 21.5831 93.8115C21.5697 94.5116 21.52 95.2108 21.4342 95.9058C21.1216 98.9175 20.6933 103.042 26.7184 105.012C27.9277 105.35 29.1812 105.502 30.4361 105.464C36.1413 105.211 41.7797 104.13 47.1742 102.255C48.7317 104.971 49.6707 107.998 49.9238 111.119C49.9235 111.618 50.1219 112.097 50.4751 112.45C50.8281 112.803 51.3071 113.002 51.8067 113.002H98.8755C99.6806 112.992 100.389 112.467 100.633 111.7C100.881 110.922 100.611 110.072 99.9604 109.58C98.0124 108.101 91.5612 92.5168 91.3629 86.9193C91.9314 85.6284 92.6931 84.1788 93.595 82.4949C98.5062 73.8398 101.922 64.4178 103.698 54.626ZM87.5834 86.7302C87.6312 91.2329 91.6905 103.131 95.1779 109.236H53.5298C53.061 106.351 52.1264 103.562 50.7624 100.977C56.2174 98.8394 61.0226 96.0905 63.3291 93.0737C63.9568 92.247 63.7975 91.0681 62.9726 90.438C62.1479 89.8076 60.9686 89.9636 60.3358 90.7864C55.0074 97.7585 32.8373 103.052 27.8876 101.433C24.7528 100.408 24.8777 99.2045 25.1793 96.2959C25.2792 95.4714 25.3357 94.6422 25.3485 93.812C25.3485 90.6394 24.0688 89.6925 22.1455 89.2466C21.7826 89.1947 21.436 89.0608 21.1324 88.8549C21.5019 88.5017 21.9214 88.2047 22.3772 87.9733C23.1631 87.5872 23.5792 86.7104 23.3811 85.8574C23.183 85.0044 22.4235 84.4005 21.5478 84.3999C20.8676 84.3999 20.1119 84.3999 19.7148 84.3502C19.5952 83.116 19.5546 81.8756 19.5934 80.6363C19.6303 79.1516 19.0659 77.7151 18.0285 76.6525C16.9911 75.5899 15.5682 74.9913 14.0831 74.9926C12.7262 74.7067 12.3142 74.3389 12.2794 74.2535C12.0054 73.6 13.8201 70.8696 14.7946 69.4024C16.8851 66.2546 19.4869 62.3365 19.5934 58.0977C19.6462 55.7455 19.3845 53.3968 18.8153 51.1139C20.8683 49.3074 23.2911 47.9712 25.9147 47.1992C26.8495 47.0359 27.8101 47.1032 28.713 47.3949C29.7153 47.6711 30.7516 47.0825 31.0279 46.0803C31.3041 45.078 30.7155 44.0417 29.7133 43.7654C28.2307 43.3092 26.6589 43.2231 25.1351 43.5144C22.4745 44.1921 19.9879 45.427 17.8398 47.1374C17.5826 46.0406 17.4085 44.926 17.3191 43.8029C17.1916 40.8689 17.5285 37.9332 18.3175 35.1044C21.958 20.3906 33.1332 9.52171 48.9821 5.28352C60.2405 2.26412 72.2327 3.75937 82.4048 9.45088C98.3623 18.9942 102.709 39.2045 99.995 53.9438C98.3029 63.3565 95.0159 72.4114 90.276 80.7179C89.2408 82.6493 88.3472 84.3171 87.7019 85.8605C87.5929 86.1367 87.552 86.435 87.5834 86.7302Z" fill="white"/>
<path id="Vector_2" d="M91.32 58.9276C91.5894 56.0233 89.6013 53.3923 86.7337 52.8583L83.1283 47.8607C83.3493 47.453 83.5188 47.0192 83.6326 46.5693L87.1242 45.1732C88.7368 47.0088 91.3487 47.5962 93.5917 46.6274C95.8347 45.6586 97.1978 43.3545 96.967 40.922C96.7362 38.4894 94.9636 36.4832 92.5783 35.9537L89.7498 30.3114C91.7339 28.2897 91.9054 25.1079 90.1496 22.885C88.3937 20.6619 85.2589 20.0913 82.8326 21.5533L79.6784 18.9345C79.9171 18.3106 80.042 17.6491 80.0473 16.981C80.0524 14.6743 78.6511 12.5972 76.5103 11.7383C74.3695 10.8791 71.9211 11.4115 70.3303 13.082L64.7485 11.6867C64.0799 9.2654 61.8842 7.58283 59.3722 7.56761C56.8603 7.55239 54.6442 9.20803 53.9464 11.6209L46.4867 13.1128C44.5409 11.0146 41.3293 10.713 39.027 12.4125C36.7247 14.1119 36.0665 17.2696 37.498 19.7473L33.8427 24.6152C31.2233 25.0887 29.2932 27.3315 29.2153 29.9921C29.1374 32.6528 30.9332 35.0045 33.5204 35.6305L36.5429 43.0921C34.8846 44.72 34.395 47.1986 35.3097 49.335C36.2245 51.4712 38.3563 52.8274 40.6787 52.7507C43.0011 52.6739 45.0389 51.1802 45.8106 48.9882H55.9186C56.7626 51.5842 59.3961 53.156 62.0814 52.6666L68.3318 62.174C66.7282 63.9519 66.4235 66.5488 67.5717 68.6497C68.7199 70.7503 71.0705 71.8961 73.4327 71.5062C75.7948 71.1164 77.6525 69.2763 78.0649 66.9179L82.7307 63.1885C83.6185 63.7482 84.646 64.047 85.6956 64.0505C88.6126 64.0525 91.0509 61.832 91.32 58.9276ZM91.3441 39.5741C92.2857 39.5721 93.084 40.2662 93.2129 41.1989C93.3419 42.1315 92.7619 43.0162 91.8553 43.27C90.9487 43.5237 89.9938 43.0685 89.6198 42.2043C89.6134 42.1871 89.6169 42.1692 89.6101 42.152L89.5982 42.1337C89.5106 41.9186 89.464 41.6891 89.4612 41.4568C89.4625 40.4176 90.3047 39.5752 91.3441 39.5741ZM83.8526 26.0121C84.0333 25.1381 84.8036 24.5113 85.696 24.512C86.7359 24.512 87.5787 25.3548 87.5787 26.3947C87.5787 27.4345 86.7359 28.2773 85.696 28.2773C85.463 28.2745 85.2329 28.2279 85.0171 28.1401L85.001 28.1295C84.9845 28.1229 84.9671 28.1264 84.9501 28.12C84.1302 27.7668 83.6717 26.8862 83.8526 26.0121ZM81.9796 30.6147L78.5004 39.314L72.4014 34.4348C73.2288 33.729 73.8333 32.7982 74.1422 31.7552L81.6019 30.2633C81.7204 30.3888 81.8499 30.5005 81.9796 30.6147ZM79.9752 45.7311C79.7217 46.6366 78.8385 47.216 77.9067 47.0876C76.9752 46.9592 76.2813 46.1629 76.2822 45.2224C76.2833 44.1829 77.1254 43.3406 78.1649 43.3397C78.3978 43.3425 78.628 43.3891 78.8438 43.4769L78.8599 43.4875C78.8768 43.4943 78.8947 43.4915 78.9117 43.4977C79.7746 43.8718 80.2287 44.8254 79.9752 45.7311ZM74.3993 15.0983C75.4391 15.0983 76.282 15.9412 76.282 16.981C76.282 18.0209 75.4389 18.8637 74.3993 18.8637C73.3596 18.8637 72.5166 18.0209 72.5166 16.981C72.5177 15.9416 73.3599 15.0994 74.3993 15.0983ZM64.4914 15.5034L68.7918 16.5786C68.7819 16.7141 68.7512 16.8433 68.7512 16.9812C68.7545 20.0993 71.2815 22.6262 74.3995 22.6295C75.4091 22.6242 76.3987 22.3456 77.2625 21.8229L80.4169 24.4416C80.1782 25.0655 80.0531 25.727 80.0478 26.3951C80.0478 26.5089 80.0749 26.6155 80.0813 26.7278L73.9494 27.9541C73.1805 26.1643 71.5438 24.8968 69.6185 24.6L62.725 17.7067C63.4904 17.133 64.0982 16.3752 64.4914 15.5034ZM70.6339 30.1605C70.6339 31.2003 69.7911 32.0431 68.7512 32.0431C67.7118 32.042 66.8694 31.1999 66.8685 30.1605C66.8685 29.1206 67.7114 28.2778 68.7512 28.2778C69.7911 28.2778 70.6339 29.1206 70.6339 30.1605ZM59.3374 11.3328C60.3772 11.3328 61.2201 12.1756 61.2201 13.2154C61.2201 14.2553 60.3772 15.0981 59.3374 15.0981C58.2975 15.0981 57.4547 14.2553 57.4547 13.2154C57.4556 12.1762 58.298 11.3339 59.3374 11.3328ZM59.7105 20.0176L65.3631 25.6696C64.4844 26.3335 63.8191 27.2401 63.4498 28.2776H58.9903C58.5457 27.031 57.6769 25.9805 56.5357 25.3098L59.7105 20.0176ZM48.0073 16.6485L54.1392 15.4222C54.6204 16.532 55.4447 17.4587 56.4907 18.0661L53.0731 23.7623L47.1649 19.9713C47.7341 19.0775 48.0377 18.0405 48.0408 16.981C48.0408 16.8672 48.0137 16.7606 48.0073 16.6485ZM55.5718 30.1605C55.5718 31.2003 54.729 32.0431 53.6891 32.0431C52.6497 32.042 51.8073 31.1999 51.8064 30.1605C51.8064 29.1206 52.6492 28.2778 53.6891 28.2778C54.729 28.2778 55.5718 29.1206 55.5718 30.1605ZM42.3926 15.0983C43.4324 15.0983 44.2752 15.9412 44.2752 16.981C44.2752 18.0209 43.4324 18.8637 42.3926 18.8637C41.3527 18.8637 40.5099 18.0209 40.5099 16.981C40.5108 15.9416 41.3531 15.0994 42.3926 15.0983ZM40.3433 22.2306C41.4904 22.7036 42.7674 22.7577 43.9505 22.3835L49.7636 26.1133C49.1449 26.7194 48.6741 27.4601 48.3879 28.2776H40.1628C39.7518 27.1122 38.9703 26.1133 37.9377 25.4345L40.3433 22.2306ZM34.8614 32.0431C33.8215 32.0431 32.9787 31.2003 32.9787 30.1605C32.9798 29.121 33.822 28.2787 34.8614 28.2778C35.9012 28.2778 36.7441 29.1206 36.7441 30.1605C36.7441 31.2003 35.9012 32.0431 34.8614 32.0431ZM40.5097 48.9879C39.4698 48.9879 38.627 48.1449 38.627 47.1053C38.627 46.0654 39.4698 45.2226 40.5097 45.2226C41.5495 45.2226 42.3923 46.0656 42.3923 47.1053C42.3915 48.1447 41.5491 48.9868 40.5097 48.9879ZM41.5804 41.5651C41.2278 41.4949 40.8691 41.4588 40.5097 41.4568C40.3232 41.4568 40.1472 41.4941 39.9654 41.5119L37.3998 35.1782C38.6881 34.5253 39.6768 33.4031 40.1626 32.0431H48.3877C48.7268 32.9914 49.3139 33.8314 50.0879 34.4754L41.5804 41.5651ZM55.9188 45.2224H45.8109C45.6099 44.6584 45.3197 44.1302 44.9517 43.6581L54.1983 35.9526L57.347 43.0147C56.7036 43.6276 56.2143 44.3842 55.9188 45.2224ZM58.9903 32.0431H63.45C63.8946 33.2897 64.7635 34.3402 65.9046 35.0109L61.9901 41.5349C61.7355 41.4912 61.4784 41.4652 61.2203 41.457C61.0744 41.457 60.9374 41.4892 60.7942 41.5L57.5621 34.251C58.2055 33.6379 58.6949 32.8813 58.9903 32.0431ZM61.2201 48.9879C60.1802 48.9879 59.3374 48.1449 59.3374 47.1053C59.3374 46.0654 60.1804 45.2226 61.2201 45.2226C62.2599 45.2226 63.1027 46.0656 63.1027 47.1053C63.1018 48.1447 62.2595 48.9868 61.2201 48.9879ZM69.2567 36.7418L74.5147 40.9482C73.6875 41.6542 73.0827 42.5851 72.7738 43.6278L66.4182 44.8989C66.1563 44.2972 65.7918 43.7459 65.3409 43.2693L69.2567 36.7418ZM72.5166 67.8154C71.4767 67.8154 70.6339 66.9726 70.6339 65.9328C70.6339 64.8929 71.4767 64.0501 72.5166 64.0501C73.5564 64.0501 74.3993 64.8929 74.3993 65.9328C74.3984 66.9722 73.556 67.8145 72.5166 67.8154ZM80.0475 58.4018C80.0544 59.0308 80.1676 59.6541 80.3822 60.2454L77.204 62.786C76.0156 60.9298 73.8232 59.9758 71.655 60.3716L65.4046 50.8642C65.9631 50.2416 66.3752 49.5022 66.6111 48.7L72.9667 47.4289C74.1784 50.2908 77.4763 51.6336 80.3423 50.432L82.6649 53.6515C81.038 54.6837 80.0508 56.475 80.0475 58.4018ZM81.8812 41.0025L85.4736 32.0206C85.5489 32.0237 85.6197 32.0431 85.6958 32.0431C85.9226 32.0343 86.1488 32.0114 86.3729 31.9747L88.6525 36.5223C86.8376 37.5014 85.7031 39.3947 85.6958 41.457C85.6958 41.5333 85.7154 41.6042 85.7183 41.6798L83.187 42.6919C82.8633 42.0509 82.42 41.4775 81.8812 41.0025ZM85.6958 60.2845C84.6559 60.2845 83.8131 59.4417 83.8131 58.4018C83.8142 57.3624 84.6564 56.52 85.6958 56.5191C86.7357 56.5191 87.5785 57.3619 87.5785 58.4018C87.5785 59.4417 86.7357 60.2845 85.6958 60.2845Z" fill="white"/>
</g>
</g>
</g>
</g>
<defs>
<clipPath id="clip0_208_3751">
<rect width="113" height="113" fill="white"/>
</clipPath>
</defs>
</svg>
