<svg width="121" height="121" viewBox="0 0 121 121" fill="none" xmlns="http://www.w3.org/2000/svg">
<g id="fi_7707308">
<g id="Layer_x0020_1">
<path id="Vector" fill-rule="evenodd" clip-rule="evenodd" d="M84.2014 120.996H36.802C30.7955 120.996 25.9021 116.103 25.9021 110.096V91.6741C25.9021 90.8964 26.5324 90.2562 27.3201 90.2562L93.6734 90.2569C94.4512 90.2569 95.0914 90.8964 95.0914 91.6748V110.097C95.1006 116.103 90.2072 120.996 84.2014 120.996ZM28.7373 93.0928V110.097C28.7373 114.538 32.351 118.161 36.8013 118.161H84.2007C88.6411 118.161 92.2647 114.547 92.2647 110.097V93.0928H28.7366H28.7373ZM93.6827 25.7447H27.3193C26.5317 25.7447 25.9014 25.1144 25.9014 24.3267V10.9063C25.9014 4.90049 30.7849 0.00634766 36.8013 0.00634766H84.2007C90.2072 0.00634766 95.1006 4.88985 95.1006 10.9063V24.3267C95.1006 25.1144 94.4611 25.7447 93.6827 25.7447ZM28.7373 22.9088H92.2555V10.9063C92.2555 6.46593 88.6418 2.8423 84.1915 2.8423H36.802C32.3617 2.8423 28.738 6.456 28.738 10.9063V22.9088H28.7373Z" fill="white"/>
<path id="Vector_2" fill-rule="evenodd" clip-rule="evenodd" d="M69.6281 13.6138H51.3738C50.1629 13.6138 48.5379 13.0331 47.6325 10.2461L44.9249 1.86655C44.6264 0.935646 45.3304 0.0153809 46.2734 0.0153809H74.7194C75.6822 0.0153809 76.3585 0.959752 76.0686 1.86655L73.3609 10.2461C72.4648 13.0225 70.8398 13.6138 69.6288 13.6138H69.6281ZM48.2231 2.84211C48.757 4.49547 50.377 10.7778 51.3738 10.7778H69.6281C70.6221 10.7778 72.2507 4.47846 72.7789 2.84211H48.2231Z" fill="white"/>
<path id="Vector_3" fill-rule="evenodd" clip-rule="evenodd" d="M93.6823 105.233H27.319C25.4523 105.233 25.4523 102.397 27.319 102.397H93.6724C95.5335 102.397 95.5385 105.233 93.6816 105.233H93.6823Z" fill="white"/>
<path id="Vector_4" fill-rule="evenodd" clip-rule="evenodd" d="M64.3519 115.867H56.6523C51.1719 115.867 51.1719 107.538 56.6523 107.538H64.3519C69.8232 107.538 69.8487 115.867 64.3519 115.867ZM56.6523 110.364C54.8983 110.364 54.9097 113.022 56.6523 113.022L64.3519 113.022C66.106 113.022 66.0946 110.364 64.3519 110.364H56.6523Z" fill="white"/>
<path id="Vector_5" fill-rule="evenodd" clip-rule="evenodd" d="M100.082 93.0923H20.9188C15.5723 93.0923 11.2305 88.7398 11.2305 83.404V32.5972C11.2305 27.2508 15.5723 22.9089 20.9188 22.9089H100.082C105.429 22.9089 109.77 27.2508 109.77 32.5972V83.404C109.77 88.7505 105.429 93.0923 100.082 93.0923ZM20.9188 25.7442C17.1378 25.7442 14.0657 28.8162 14.0657 32.5972V83.404C14.0657 87.185 17.1378 90.2571 20.9188 90.2571H100.082C103.863 90.2571 106.935 87.185 106.935 83.404V32.5972C106.935 28.8162 103.863 25.7442 100.082 25.7442H20.9188Z" fill="white"/>
<path id="Vector_6" fill-rule="evenodd" clip-rule="evenodd" d="M108.354 42.5322H12.649C10.7801 42.5322 10.7794 39.6963 12.649 39.6963L108.354 39.697C110.221 39.697 110.221 42.5322 108.354 42.5322Z" fill="white"/>
<path id="Vector_7" fill-rule="evenodd" clip-rule="evenodd" d="M46.8836 82.1526C46.5191 82.1526 46.1554 82.015 45.8789 81.7392L31.5333 67.3929C30.9824 66.842 30.9824 65.9352 31.5333 65.3843L45.8789 51.0486C47.1934 49.7341 49.2083 51.725 47.8875 53.0571L34.5458 66.3989L47.8875 79.7406C48.768 80.6211 48.1612 82.1533 46.8829 82.1533L46.8836 82.1526Z" fill="white"/>
<path id="Vector_8" fill-rule="evenodd" clip-rule="evenodd" d="M74.1198 82.153C72.8543 82.153 72.2303 80.6237 73.1152 79.7304L86.4569 66.3887L73.1251 53.0569C71.8106 51.7424 73.8007 49.7268 75.1336 51.0483L89.4694 65.3841C90.021 65.9356 90.021 66.8311 89.4694 67.3926L75.1336 81.739C74.8479 82.0148 74.4835 82.1523 74.1191 82.1523L74.1198 82.153Z" fill="white"/>
<path id="Vector_9" fill-rule="evenodd" clip-rule="evenodd" d="M50.6057 84.9501C49.5039 84.9501 48.8403 83.759 49.3749 82.8231L69.1556 48.5577C70.0901 46.9427 72.5453 48.35 71.6172 49.9757L51.8365 84.2411C51.5706 84.6941 51.0977 84.9501 50.6057 84.9501Z" fill="white"/>
<path id="Vector_10" fill-rule="evenodd" clip-rule="evenodd" d="M77.9275 34.1429C76.3564 34.1429 74.1465 34.5265 74.1465 32.7249C74.1465 30.9234 76.3564 31.3077 77.9275 31.3077C79.7893 31.3077 79.8014 34.1429 77.9275 34.1429Z" fill="white"/>
<path id="Vector_11" fill-rule="evenodd" clip-rule="evenodd" d="M87.9705 34.1429C86.3987 34.1429 84.1895 34.5265 84.1895 32.7249C84.1895 30.9234 86.3994 31.3077 87.9705 31.3077C89.8323 31.3077 89.8443 34.1429 87.9705 34.1429Z" fill="white"/>
<path id="Vector_12" fill-rule="evenodd" clip-rule="evenodd" d="M98.0154 34.1429C96.4443 34.1429 94.2344 34.5265 94.2344 32.7249C94.2344 30.9234 96.4443 31.3077 98.0154 31.3077C99.8772 31.3077 99.8893 34.1429 98.0154 34.1429Z" fill="white"/>
<path id="Vector_13" fill-rule="evenodd" clip-rule="evenodd" d="M57.6945 36.3877H22.9868C20.9839 36.3877 21.5688 33.3645 21.5688 30.4705C21.5688 29.6828 22.1991 29.0525 22.9868 29.0525H57.6945C59.6981 29.0525 59.1125 32.0799 59.1125 34.9803C59.1125 35.7581 58.4822 36.3877 57.6945 36.3877ZM24.4047 33.5517H56.2765V31.8778H24.4047V33.5517Z" fill="white"/>
</g>
</g>
</svg>
