<svg width="122" height="122" viewBox="0 0 107 109" fill="none" xmlns="http://www.w3.org/2000/svg">
<path id="Vector" d="M106.349 24.9648C106.342 24.9188 106.343 24.8702 106.331 24.8251C106.298 24.701 106.249 24.5816 106.186 24.47C106.164 24.4317 106.132 24.401 106.107 24.3653C106.061 24.2934 106.009 24.2256 105.952 24.1626C105.917 24.1268 105.872 24.1021 105.834 24.0698C105.777 24.0174 105.716 23.9695 105.652 23.9267L105.641 23.9225L105.631 23.9156L93.1807 16.7821C92.9551 16.653 92.6997 16.585 92.4398 16.585C92.1799 16.585 91.9245 16.653 91.699 16.7821L79.2415 23.9148L79.2321 23.9216L79.221 23.9259C79.1563 23.9689 79.095 24.017 79.0379 24.0698C78.9996 24.1013 78.9528 24.1268 78.9213 24.1617C78.8632 24.2255 78.8107 24.2941 78.7646 24.367C78.7399 24.4027 78.7084 24.4325 78.6871 24.47C78.6235 24.5816 78.5745 24.701 78.5415 24.8251C78.5295 24.8685 78.5312 24.9154 78.5236 24.9597C78.5058 25.0412 78.4949 25.1241 78.4912 25.2075V28.2433L67.4115 21.3048C67.4277 21.2302 67.4379 21.1544 67.4422 21.0782V8.62329C67.4383 8.54134 67.4274 8.45987 67.4098 8.37974C67.4022 8.33375 67.4039 8.28522 67.392 8.24008C67.3589 8.11622 67.3099 7.99716 67.2463 7.88583C67.2165 7.84158 67.1844 7.79894 67.1501 7.7581C67.1091 7.69479 67.0632 7.63472 67.013 7.57842C66.9681 7.53877 66.9209 7.5018 66.8717 7.46772C66.8213 7.42233 66.7678 7.3805 66.7116 7.34254H66.703L66.6971 7.32976L54.2387 0.197075C54.0132 0.067937 53.7578 0 53.4979 0C53.238 0 52.9826 0.067937 52.757 0.197075L40.2986 7.32976L40.2884 7.33743H40.2799C40.2234 7.37563 40.1696 7.41775 40.119 7.46346C40.07 7.49729 40.0231 7.53397 39.9785 7.57331C39.9276 7.63037 39.8811 7.6913 39.8397 7.75554C39.806 7.79561 39.7745 7.83739 39.7451 7.88072C39.6815 7.99231 39.6325 8.11167 39.5995 8.23582C39.5876 8.27925 39.5893 8.32609 39.5816 8.37037C39.5638 8.4519 39.553 8.5348 39.5493 8.61818V21.0782C39.5535 21.1547 39.5638 21.2307 39.5799 21.3056L28.5028 28.2433V25.2083C28.4989 25.1264 28.488 25.0449 28.4704 24.9648C28.4628 24.9188 28.4645 24.8702 28.4526 24.8251C28.4195 24.701 28.3706 24.5816 28.3069 24.47C28.2857 24.4317 28.2533 24.401 28.2278 24.3653C28.182 24.2934 28.1302 24.2256 28.0728 24.1626C28.0379 24.1268 27.9936 24.1021 27.9553 24.0698C27.8984 24.0174 27.8374 23.9695 27.773 23.9267L27.7619 23.9225L27.7526 23.9156L15.3002 16.7821C15.0746 16.653 14.8192 16.585 14.5593 16.585C14.2994 16.585 14.044 16.653 13.8185 16.7821L1.36351 23.9148L1.35414 23.9216L1.34307 23.9259C1.27833 23.9689 1.21711 24.017 1.15998 24.0698C1.12166 24.1013 1.07483 24.1268 1.04332 24.1617C0.985206 24.2255 0.932776 24.2941 0.886633 24.367C0.861938 24.4027 0.83043 24.4325 0.809141 24.47C0.745524 24.5816 0.696581 24.701 0.663523 24.8251C0.651602 24.8685 0.653305 24.9154 0.645641 24.9597C0.62781 25.0412 0.616984 25.1241 0.613281 25.2075V37.6624C0.613246 37.93 0.685261 38.1927 0.821764 38.4228C0.958268 38.653 1.15422 38.8421 1.38905 38.9704L13.0682 45.3478V62.4114L1.36351 69.1149L1.35414 69.1217L1.34307 69.1259C1.27833 69.169 1.21711 69.2171 1.15998 69.2699C1.12166 69.3014 1.07483 69.3269 1.04332 69.3618C0.985206 69.4255 0.932776 69.4942 0.886633 69.5671C0.861938 69.6028 0.83043 69.6326 0.809141 69.6701C0.745524 69.7817 0.696581 69.9011 0.663523 70.0252C0.651602 70.0686 0.653305 70.1155 0.645641 70.1597C0.62781 70.2413 0.616984 70.3242 0.613281 70.4076V82.8625C0.613412 83.1303 0.685684 83.393 0.822497 83.6232C0.959309 83.8534 1.15561 84.0424 1.39076 84.1705L13.8449 90.9685C13.9149 91.0026 13.9875 91.0311 14.062 91.0537C14.102 91.0682 14.1395 91.0894 14.1804 91.0997C14.4282 91.1671 14.6896 91.1671 14.9374 91.0997C14.9783 91.0886 15.0158 91.0673 15.0558 91.0537C15.1303 91.0311 15.2029 91.0026 15.2729 90.9685L25.8476 85.1958L39.5578 94.3237V100.5C39.5578 100.768 39.6298 101.03 39.7663 101.26C39.9028 101.491 40.0987 101.68 40.3336 101.808L52.7877 108.606C52.8577 108.64 52.9303 108.669 53.0048 108.691C53.0448 108.706 53.0823 108.727 53.1232 108.737C53.371 108.805 53.6324 108.805 53.8802 108.737C53.9211 108.726 53.9586 108.705 53.9986 108.691C54.0731 108.669 54.1457 108.64 54.2157 108.606L66.6664 101.806C66.9013 101.678 67.0972 101.489 67.2337 101.259C67.3702 101.029 67.4422 100.766 67.4422 100.498V94.322L81.1524 85.1941L91.7271 90.9668C91.7971 91.0009 91.8697 91.0294 91.9442 91.052C91.9842 91.0665 92.0217 91.0877 92.0626 91.098C92.3104 91.1654 92.5718 91.1654 92.8196 91.098C92.8605 91.0869 92.898 91.0656 92.938 91.052C93.0125 91.0294 93.0851 91.0009 93.1551 90.9668L105.605 84.1705C105.84 84.0422 106.036 83.8531 106.172 83.6229C106.309 83.3928 106.381 83.1301 106.381 82.8625V70.4084C106.377 70.3265 106.366 70.245 106.348 70.1649C106.341 70.1189 106.342 70.0703 106.331 70.0252C106.297 69.901 106.249 69.7817 106.185 69.6701C106.164 69.6318 106.131 69.6011 106.106 69.5654C106.06 69.4935 106.008 69.4256 105.951 69.3627C105.916 69.3269 105.872 69.3022 105.833 69.2699C105.776 69.2174 105.715 69.1696 105.651 69.1268L105.64 69.1225L105.631 69.1157L93.9258 62.4122V45.3478L105.604 38.973C105.839 38.8447 106.035 38.6555 106.171 38.4254C106.308 38.1952 106.38 37.9326 106.38 37.665V25.2083C106.377 25.1264 106.366 25.045 106.349 24.9648ZM62.5176 88.2231L53.4979 93.1468L44.4781 88.2231L44.0966 88.0145L53.4979 82.6309L62.8991 88.011L62.5176 88.2231ZM25.5223 36.7785L16.0487 41.9492V32.8911L25.5223 27.7204V36.7785ZM14.5585 64.9925L23.9597 70.376L23.5782 70.5847L14.5585 75.5084L5.53872 70.5847L5.15722 70.376L14.5585 64.9925ZM26.8874 68.6184L16.0487 62.4105V45.3478L25.9217 39.9582L39.5535 48.8281V59.7009L26.8874 68.6184ZM42.534 20.1935V11.1354L52.0076 16.3095V25.365L42.534 20.1935ZM64.4617 20.1935L54.9881 25.365V16.3095L64.4617 11.1371V20.1935ZM53.4979 42.604L62.8991 47.9876L62.5176 48.1962L53.4979 53.12L44.4781 48.1962L44.0966 47.9876L53.4979 42.604ZM42.534 50.5312L52.0076 55.7028V64.7634L42.534 59.5901V50.5312ZM54.9881 55.7028L64.4617 50.5312V59.5901L54.9881 64.7634V55.7028ZM67.4422 48.8281L81.074 39.9557L90.947 45.3478V62.4114L80.1083 68.6193L67.4422 59.7009V48.8281ZM90.9453 32.8911V41.9492L81.4734 36.7785V27.7204L90.9453 32.8911ZM81.4734 81.9786V72.9197L90.947 78.0912V87.1493L81.4734 81.9786ZM101.457 70.5847L92.4373 75.5084L83.4167 70.5847L83.0352 70.376L92.4364 64.9925L101.838 70.376L101.457 70.5847ZM92.4373 19.7924L101.839 25.176L101.457 25.3846L92.4373 30.3083L83.4167 25.3846L83.0352 25.176L92.4373 19.7924ZM78.5449 38.0448L65.9026 46.2734L54.9881 40.0229V28.761L64.9854 23.3025L78.4921 31.7602V37.6616C78.4929 37.7911 78.5107 37.9199 78.5449 38.0448ZM53.4979 3.2082L62.8983 8.59263L53.91 13.4993L53.4979 13.7241L53.0857 13.4993L44.0975 8.59178L53.4979 3.2082ZM42.0103 23.3051L52.0076 28.7636V40.0229L41.0932 46.2734L28.4509 38.0448C28.4848 37.9198 28.5022 37.791 28.5028 37.6616V31.7602L42.0103 23.3051ZM14.5585 19.7924L23.9597 25.176L23.5782 25.3846L14.5585 30.3083L5.53872 25.3846L5.15722 25.176L14.5585 19.7924ZM3.5963 27.7204L13.0699 32.892V41.9492L3.5963 36.7785V27.7204ZM3.5963 72.9205L13.0699 78.0921V87.1501L3.5963 81.9786V72.9205ZM16.0504 78.0921L25.524 72.9205V81.9786L16.0504 87.1493V78.0921ZM28.4202 83.3275C28.4735 83.1778 28.5022 83.0205 28.5054 82.8617V71.1271L41.1434 62.2266L52.0076 68.1569V80.0498L40.2986 86.7533L40.2893 86.7601L40.2782 86.7644C40.2135 86.8074 40.1523 86.8555 40.0951 86.9083C40.0568 86.9398 40.01 86.9653 39.9785 87.0002C39.9203 87.064 39.8679 87.1326 39.8218 87.2055C39.7971 87.2412 39.7656 87.271 39.7443 87.3085C39.6807 87.4201 39.6317 87.5395 39.5987 87.6636C39.5867 87.707 39.5884 87.7539 39.5808 87.7982C39.563 87.8797 39.5521 87.9626 39.5484 88.046V90.742L28.4202 83.3275ZM42.534 93.5181V90.5572L52.0076 95.7288V104.787L42.534 99.6161V93.5181ZM54.9881 104.787V95.7296L64.4617 90.5581V99.617L54.9881 104.787ZM67.4422 88.046C67.4383 87.964 67.4274 87.8826 67.4098 87.8024C67.4022 87.7564 67.4039 87.7079 67.392 87.6628C67.3589 87.5386 67.31 87.4193 67.2463 87.3077C67.2251 87.2693 67.1927 87.2387 67.1671 87.2029C67.1214 87.131 67.0696 87.0632 67.0122 87.0002C66.9772 86.9645 66.933 86.9398 66.8946 86.9074C66.8378 86.855 66.7768 86.8072 66.7124 86.7644L66.7013 86.7601L66.692 86.7533L54.9881 80.0498V68.1569L65.8523 62.2266L78.4929 71.1271V82.8625C78.4961 83.0213 78.5248 83.1786 78.5781 83.3283L67.4448 90.7429L67.4422 88.046ZM93.9258 87.1484V78.0912L103.399 72.9197V81.9786L93.9258 87.1484ZM93.9258 41.9483V32.8911L103.399 27.7204V36.7785L93.9258 41.9483Z" fill="white"/>
</svg>
