<svg xmlns="http://www.w3.org/2000/svg" width="81" height="98" viewBox="0 0 81 98" fill="none">
  <path d="M32.9108 67.3413C31.936 67.585 31.205 67.8287 30.4739 68.3161C29.4992 66.854 28.7682 65.1482 27.7935 63.9298C26.0877 61.4929 24.1382 59.2998 22.4324 56.8629C19.7519 53.2077 17.5587 49.5524 16.584 44.9224C14.3908 33.4693 20.7266 22.2598 31.6923 17.8735C46.0697 12.0251 62.6402 21.7724 64.8334 37.1245C65.8081 44.1914 63.6149 50.0398 59.716 55.6445C58.0102 58.0814 55.8171 60.5182 54.1113 63.1987C52.8929 64.9045 52.1619 66.6103 50.9434 68.3161C50.4561 69.0471 49.9687 69.7782 49.2376 70.0219C43.6329 72.215 38.0282 74.1645 32.4234 76.114C31.6924 76.3577 31.205 76.114 30.9613 75.6266C30.7176 74.8955 30.7177 74.1645 31.4487 73.9208C31.9361 73.6771 32.4234 73.4334 32.9108 73.4334C37.7844 71.7277 42.6581 70.0219 47.5318 68.0724C48.0192 67.8287 48.5065 67.3413 48.7502 66.854C50.6997 63.1987 53.1366 60.2745 55.5734 56.8629C58.0103 53.695 60.2034 50.7708 61.1781 46.8719C63.615 39.074 61.9092 32.2509 56.5481 26.4024C50.456 19.5793 42.6582 17.3861 33.8856 20.0667C25.1129 22.7472 20.2392 28.8393 18.5334 37.8556C17.315 44.1914 19.5081 49.5524 23.1634 54.4261C25.3566 57.3503 27.5497 60.2745 29.7429 63.1987C31.205 64.1735 31.936 65.6356 32.9108 67.3413Z" fill="#E25527"/>
  <path d="M31.692 91.4661C31.4483 91.2224 30.9609 90.9787 30.9609 90.4914C30.9609 90.004 31.2047 89.5166 31.4483 89.0293C31.4483 88.7856 31.9357 88.7856 32.1794 88.7856C37.5404 86.8361 43.1452 84.8866 48.5062 82.9372C49.7246 82.4498 50.212 82.6935 50.4557 83.4245C50.6993 84.1556 50.212 84.8866 49.2372 85.374C43.6325 87.3235 38.2715 89.2729 32.6668 91.4661C32.4231 91.2224 32.1793 91.2224 31.692 91.4661Z" fill="#E25527"/>
  <path d="M31.692 83.4248C31.4483 83.1811 30.9609 82.9375 30.9609 82.4501C30.9609 81.9627 31.2047 81.4754 31.4483 80.988C31.4483 80.7443 31.9357 80.7443 32.1794 80.7443C37.5404 78.7948 43.1452 76.8454 48.5062 74.8959C49.7246 74.4085 50.212 74.6522 50.4557 75.3833C50.6993 76.1143 50.4557 76.8454 49.2372 77.3327C43.6325 79.2822 38.2715 81.4754 32.6668 83.4248C32.4231 83.4248 32.1793 83.4248 31.692 83.4248Z" fill="#E25527"/>
  <path d="M49.2366 90.2478C47.5308 96.0962 38.0271 99.5078 32.1787 96.3399C37.7834 94.3904 43.3882 92.1973 49.2366 90.2478Z" fill="#E25527"/>
  <path d="M41.9271 4.95858C41.9271 5.93331 41.9271 6.90805 41.9271 7.88278C41.9271 8.61384 41.4397 9.1012 40.7087 9.1012C39.9776 9.1012 39.4902 8.61384 39.4902 7.88278C39.4902 5.93331 39.4902 3.98384 39.4902 1.79069C39.4902 1.05963 39.9776 0.572266 40.7087 0.572266C41.4397 0.572266 41.9271 1.05963 41.9271 1.79069C41.9271 2.76542 41.9271 3.98384 41.9271 4.95858Z" fill="#E25527"/>
  <path d="M5.13042 39.0743C6.10516 39.0743 7.07992 39.0743 8.05466 39.0743C9.0294 39.0743 9.51678 39.5617 9.51678 40.2928C9.51678 41.0238 9.0294 41.5112 8.05466 41.5112C6.10519 41.5112 4.15573 41.5112 2.20626 41.5112C1.23152 41.5112 0.744141 41.0238 0.744141 40.2928C0.744141 39.5617 1.23152 39.0743 2.20626 39.0743C3.18099 39.0743 4.15569 39.0743 5.13042 39.0743Z" fill="#E25527"/>
  <path d="M76.2862 41.755C75.3115 41.755 74.3367 41.755 73.362 41.755C72.6309 41.755 72.1436 41.2676 72.1436 40.5365C72.1436 39.8055 72.6309 39.3181 73.362 39.3181C75.3114 39.3181 77.5046 39.3181 79.4541 39.3181C80.1851 39.3181 80.6725 39.8055 80.6725 40.5365C80.6725 41.2676 80.1851 41.755 79.4541 41.755C78.2357 41.755 77.2609 41.755 76.2862 41.755Z" fill="#E25527"/>
  <path d="M12.9278 11.2942C13.4151 11.5379 13.6588 11.7816 13.9025 12.0252C15.3646 13.4873 16.583 14.7058 18.0451 16.1679C18.7762 16.8989 18.7762 17.3863 18.0451 18.1173C17.5578 18.6047 16.8267 18.6047 16.0956 18.1173C14.6335 16.6552 13.1715 15.4368 11.953 13.9747C11.7093 13.731 11.4656 13 11.7093 12.5126C11.953 11.7816 12.6841 11.5379 12.9278 11.2942Z" fill="#E25527"/>
  <path d="M63.8579 62.2246C64.3452 62.4683 64.5889 62.712 64.8326 62.9557C66.2947 64.1741 67.5132 65.6362 68.9753 66.8546C69.7063 67.5857 69.7063 68.3167 69.219 68.8041C68.7316 69.2914 68.0005 69.2914 67.2694 68.5604C65.8073 67.0983 64.589 65.8799 63.1269 64.4178C62.8832 64.1741 62.6395 63.443 62.8832 62.9557C62.8832 62.712 63.3705 62.4683 63.8579 62.2246Z" fill="#E25527"/>
  <path d="M69.7062 12.7564C69.4625 13.2437 69.2189 13.4874 68.9752 13.7311C67.5131 15.1932 66.2947 16.4116 64.8325 17.8737C64.3452 18.3611 63.6142 18.6048 62.8831 17.8737C62.3957 17.3864 62.3957 16.6553 62.8831 15.9243C64.3452 14.4622 65.5636 13.0001 67.0257 11.7816C67.2694 11.5379 68.0004 11.2943 68.4878 11.5379C68.9752 11.7816 69.2189 12.5127 69.7062 12.7564Z" fill="#E25527"/>
  <path d="M12.9278 69.291C12.6841 69.0473 12.1967 68.8036 11.953 68.3162C11.7093 68.0726 11.953 67.3415 11.953 67.0978C13.4151 65.6357 14.8772 63.9299 16.583 62.4678C17.0704 61.9805 17.8014 61.9805 18.2888 62.4678C18.7761 62.9552 18.7761 63.6862 18.2888 64.1736C16.8267 65.6357 15.3646 67.0978 13.9025 68.5599C13.6588 69.0473 13.4151 69.291 12.9278 69.291Z" fill="#E25527"/>
</svg>