<svg xmlns="http://www.w3.org/2000/svg" width="193" height="193" viewBox="0 0 193 193" fill="none">
  <path d="M176.728 109.479C184.052 65.0054 153.937 23.0147 109.463 15.6903C64.9892 8.3659 22.9985 38.4814 15.6741 82.9552C8.34969 127.429 38.4652 169.42 82.939 176.744C127.413 184.068 169.403 153.953 176.728 109.479Z" fill="#F15A29"/>
  <path d="M144.349 144.349C170.923 117.775 170.924 74.6904 144.35 48.1164C117.776 21.5424 74.6905 21.5424 48.1165 48.1164C21.5425 74.6904 21.5425 117.775 48.1165 144.349C74.6905 170.923 117.775 170.923 144.349 144.349Z" fill="#242424"/>
  <path d="M84.102 98.5386L93.1867 93.764L102.269 98.5386L100.535 88.4247L107.884 81.2619L97.728 79.7855L93.1867 70.5817L88.6452 79.7855L78.4893 81.2619L85.8379 88.4247L84.102 98.5386ZM91.3824 83.5519L93.1867 79.896L94.9909 83.5519L99.0255 84.1393L96.1061 86.9852L96.7952 91.0041L93.1867 89.1068L89.5763 91.0041L90.2654 86.9852L87.3459 84.1393L91.3824 83.5519Z" fill="white"/>
  <path d="M68.3158 73.1766C62.6328 73.1766 58.0107 77.7987 58.0107 83.4816C58.0107 89.1645 62.6328 93.7866 68.3158 93.7866H71.2387C73.3955 101.339 79.3992 107.297 87.0022 109.427V118.519H79.3291L75.2068 131.023H70.5146V135.145H115.857V131.023H111.165L107.042 118.519H99.3693V109.417C106.909 107.278 112.86 101.325 115.001 93.7848H118.057C123.74 93.7848 128.362 89.1628 128.362 83.4798C128.362 77.7969 123.74 73.1749 118.057 73.1749H115.859V68.9157H120.118V64.7934C117.209 64.7934 70.5111 64.7934 66.2555 64.7934V68.9157H70.3779V73.1749L68.3158 73.1766ZM68.3158 89.666C64.9071 89.666 62.1331 86.892 62.1331 83.4833C62.1331 80.0747 64.9071 77.3007 68.3158 77.3007H70.376V87.6057C70.376 88.3001 70.4094 88.9874 70.4707 89.666H68.3158ZM106.825 131.024H79.5466L82.31 122.643H104.061L106.825 131.024ZM95.2469 118.521H91.1245V110.183C91.8031 110.244 92.4905 110.276 93.1866 110.276C93.881 110.276 94.5683 110.243 95.2469 110.181V118.521ZM118.056 77.299C121.464 77.299 124.238 80.0729 124.238 83.4816C124.238 86.8903 121.464 89.6642 118.056 89.6642H115.762C115.824 88.9856 115.857 88.2983 115.857 87.604V77.299H118.056ZM111.736 68.9175V87.604C111.736 97.8318 103.414 106.154 93.1866 106.154C82.8834 106.154 74.5001 97.8318 74.5001 87.604V68.9175H111.736Z" fill="white"/>
</svg>