<svg width="117" height="117" viewBox="0 0 117 117" fill="none" xmlns="http://www.w3.org/2000/svg">
<g id="Hosting-server-cloud">
<path id="Vector" d="M39.2812 35.4381H62.3438V39.2819H39.2812V35.4381Z" fill="white"/>
<path id="Vector_2" d="M66.1875 35.4381H70.0312V39.2819H66.1875V35.4381Z" fill="white"/>
<path id="Vector_3" d="M73.875 35.4381H77.7188V39.2819H73.875V35.4381Z" fill="white"/>
<path id="Vector_4" d="M39.2812 50.8131H62.3438V54.6569H39.2812V50.8131Z" fill="white"/>
<path id="Vector_5" d="M66.1875 50.8131H70.0312V54.6569H66.1875V50.8131Z" fill="white"/>
<path id="Vector_6" d="M73.875 50.8131H77.7188V54.6569H73.875V50.8131Z" fill="white"/>
<path id="Vector_7" d="M39.2812 66.1881H62.3438V70.0319H39.2812V66.1881Z" fill="white"/>
<path id="Vector_8" d="M66.1875 66.1881H70.0312V70.0319H66.1875V66.1881Z" fill="white"/>
<path id="Vector_9" d="M73.875 66.1881H77.7188V70.0319H73.875V66.1881Z" fill="white"/>
<path id="Vector_10" d="M108.469 79.6412C106.765 79.6434 105.11 80.2105 103.763 81.2538C102.416 82.2971 101.453 83.7577 101.025 85.4068H79.6406V77.7193C81.1692 77.7175 82.6347 77.1095 83.7156 76.0286C84.7964 74.9478 85.4045 73.4823 85.4062 71.9537V66.1881H96.9375C99.5927 66.1861 102.219 65.634 104.65 64.5666C107.081 63.4992 109.264 61.9397 111.063 59.9862C112.861 58.0328 114.235 55.728 115.098 53.2171C115.962 50.7061 116.295 48.0436 116.078 45.3973C115.861 42.7511 115.098 40.1785 113.837 37.8419C112.576 35.5053 110.844 33.4553 108.751 31.8213C106.659 30.1872 104.25 29.0045 101.677 28.3478C99.1046 27.691 96.4238 27.5745 93.8039 28.0054C91.9238 20.9132 87.9512 14.5516 82.4037 9.74954C76.8562 4.94749 69.9909 1.92762 62.7024 1.08341C55.414 0.2392 48.0402 1.60978 41.5418 5.01659C35.0435 8.42339 29.7219 13.7085 26.2704 20.1832C25.4849 20.1032 24.6958 20.0631 23.9062 20.0631C17.7897 20.0631 11.9237 22.4929 7.5986 26.8179C3.27354 31.143 0.84375 37.009 0.84375 43.1256C0.84375 49.2421 3.27354 55.1082 7.5986 59.4332C11.9237 63.7583 17.7897 66.1881 23.9062 66.1881H31.5938V71.9537C31.5955 73.4823 32.2036 74.9478 33.2844 76.0286C34.3653 77.1095 35.8308 77.7175 37.3594 77.7193V85.4068H15.9754C15.5076 83.5951 14.3952 82.0163 12.8466 80.9661C11.298 79.916 9.41952 79.4667 7.56334 79.7025C5.70717 79.9382 4.0007 80.8429 2.76381 82.2468C1.52691 83.6507 0.844503 85.4576 0.844503 87.3287C0.844503 89.1998 1.52691 91.0066 2.76381 92.4106C4.0007 93.8145 5.70717 94.7192 7.56334 94.9549C9.41952 95.1907 11.298 94.7414 12.8466 93.6912C14.3952 92.6411 15.5076 91.0622 15.9754 89.2506H39.2812C39.791 89.2506 40.2798 89.0481 40.6402 88.6877C41.0006 88.3272 41.2031 87.8384 41.2031 87.3287V77.7193H45.0469V93.0943H29.6719C29.1622 93.0943 28.6733 93.2968 28.3129 93.6572C27.9525 94.0176 27.75 94.5065 27.75 95.0162V101.025C25.9383 101.493 24.3594 102.605 23.3093 104.154C22.2592 105.703 21.8099 107.581 22.0456 109.437C22.2814 111.293 23.186 113 24.59 114.237C25.9939 115.474 27.8008 116.156 29.6719 116.156C31.543 116.156 33.3498 115.474 34.7538 114.237C36.1577 113 37.0623 111.293 37.2981 109.437C37.5339 107.581 37.0846 105.703 36.0344 104.154C34.9843 102.605 33.4054 101.493 31.5938 101.025V96.9381H46.9688C47.4785 96.9381 47.9673 96.7356 48.3277 96.3752C48.6881 96.0147 48.8906 95.5259 48.8906 95.0162V77.7193H56.5781V97.1814C54.7665 97.6492 53.1876 98.7616 52.1374 100.31C51.0873 101.859 50.638 103.737 50.8738 105.593C51.1095 107.45 52.0142 109.156 53.4181 110.393C54.8221 111.63 56.6289 112.312 58.5 112.312C60.3711 112.312 62.1779 111.63 63.5819 110.393C64.9858 109.156 65.8905 107.45 66.1262 105.593C66.362 103.737 65.9127 101.859 64.8626 100.31C63.8124 98.7616 62.2335 97.6492 60.4219 97.1814V77.7193H68.1094V95.0162C68.1094 95.5259 68.3119 96.0147 68.6723 96.3752C69.0327 96.7356 69.5215 96.9381 70.0312 96.9381H85.4062V101.025C83.5946 101.493 82.0157 102.605 80.9656 104.154C79.9154 105.703 79.4661 107.581 79.7019 109.437C79.9377 111.293 80.8423 113 82.2462 114.237C83.6502 115.474 85.457 116.156 87.3281 116.156C89.1992 116.156 91.0061 115.474 92.41 114.237C93.8139 113 94.7186 111.293 94.9544 109.437C95.1901 107.581 94.7408 105.703 93.6907 104.154C92.6405 102.605 91.0617 101.493 89.25 101.025V95.0162C89.25 94.5065 89.0475 94.0176 88.6871 93.6572C88.3267 93.2968 87.8378 93.0943 87.3281 93.0943H71.9531V77.7193H75.7969V87.3287C75.7969 87.8384 75.9994 88.3272 76.3598 88.6877C76.7202 89.0481 77.209 89.2506 77.7188 89.2506H101.025C101.384 90.6427 102.127 91.9061 103.168 92.8973C104.21 93.8886 105.508 94.5678 106.917 94.858C108.325 95.1482 109.786 95.0376 111.135 94.5389C112.483 94.0401 113.665 93.1732 114.545 92.0366C115.426 90.9 115.97 89.5392 116.116 88.1088C116.262 86.6785 116.004 85.2358 115.371 83.9448C114.738 82.6538 113.756 81.5662 112.536 80.8054C111.315 80.0447 109.907 79.6413 108.469 79.6412ZM8.53125 91.1724C7.77103 91.1724 7.02788 90.947 6.39578 90.5247C5.76368 90.1023 5.27101 89.502 4.98009 88.7996C4.68916 88.0973 4.61304 87.3244 4.76136 86.5788C4.90967 85.8332 5.27575 85.1483 5.81331 84.6107C6.35087 84.0732 7.03576 83.7071 7.78137 83.5588C8.52699 83.4105 9.29984 83.4866 10.0022 83.7775C10.7045 84.0684 11.3049 84.5611 11.7272 85.1932C12.1496 85.8253 12.375 86.5685 12.375 87.3287C12.3738 88.3477 11.9684 89.3247 11.2479 90.0453C10.5273 90.7659 9.55031 91.1712 8.53125 91.1724ZM33.5156 108.469C33.5156 109.23 33.2902 109.973 32.8678 110.605C32.4455 111.237 31.8452 111.73 31.1428 112.02C30.4405 112.311 29.6676 112.388 28.922 112.239C28.1764 112.091 27.4915 111.725 26.9539 111.187C26.4164 110.65 26.0503 109.965 25.902 109.219C25.7537 108.474 25.8298 107.701 26.1207 106.998C26.4116 106.296 26.9043 105.696 27.5364 105.273C28.1685 104.851 28.9117 104.626 29.6719 104.626C30.6909 104.627 31.6679 105.032 32.3885 105.753C33.1091 106.473 33.5144 107.45 33.5156 108.469ZM62.3438 104.626C62.3438 105.386 62.1183 106.129 61.696 106.761C61.2736 107.393 60.6733 107.886 59.9709 108.177C59.2686 108.468 58.4957 108.544 57.7501 108.395C57.0045 108.247 56.3196 107.881 55.7821 107.344C55.2445 106.806 54.8784 106.121 54.7301 105.375C54.5818 104.63 54.6579 103.857 54.9488 103.155C55.2398 102.452 55.7324 101.852 56.3645 101.43C56.9966 101.007 57.7398 100.782 58.5 100.782C59.5191 100.783 60.496 101.188 61.2166 101.909C61.9372 102.63 62.3425 103.607 62.3438 104.626ZM91.1719 108.469C91.1719 109.23 90.9464 109.973 90.5241 110.605C90.1017 111.237 89.5014 111.73 88.7991 112.02C88.0967 112.311 87.3239 112.388 86.5782 112.239C85.8326 112.091 85.1477 111.725 84.6102 111.187C84.0726 110.65 83.7065 109.965 83.5582 109.219C83.4099 108.474 83.486 107.701 83.777 106.998C84.0679 106.296 84.5605 105.696 85.1926 105.273C85.8248 104.851 86.5679 104.626 87.3281 104.626C88.3472 104.627 89.3242 105.032 90.0447 105.753C90.7653 106.473 91.1707 107.45 91.1719 108.469ZM35.4375 41.2037V33.5162C35.4381 33.0066 35.6407 32.5181 36.001 32.1578C36.3613 31.7976 36.8498 31.5949 37.3594 31.5943H79.6406C80.1502 31.5949 80.6387 31.7976 80.999 32.1578C81.3593 32.5181 81.5619 33.0066 81.5625 33.5162V41.2037C81.5619 41.7132 81.3593 42.2017 80.999 42.562C80.6387 42.9223 80.1502 43.125 79.6406 43.1256H37.3594C36.8498 43.125 36.3613 42.9223 36.001 42.562C35.6407 42.2017 35.4381 41.7132 35.4375 41.2037ZM35.4375 56.5787V48.8912C35.4381 48.3816 35.6407 47.8931 36.001 47.5328C36.3613 47.1726 36.8498 46.9699 37.3594 46.9693H79.6406C80.1502 46.9699 80.6387 47.1726 80.999 47.5328C81.3593 47.8931 81.5619 48.3816 81.5625 48.8912V56.5787C81.5619 57.0882 81.3593 57.5767 80.999 57.937C80.6387 58.2973 80.1502 58.5 79.6406 58.5006H37.3594C36.8498 58.5 36.3613 58.2973 36.001 57.937C35.6407 57.5767 35.4381 57.0882 35.4375 56.5787ZM4.6875 43.1256C4.69329 38.0302 6.71997 33.1452 10.3229 29.5422C13.9259 25.9393 18.8109 23.9126 23.9062 23.9068C24.9605 23.9066 26.013 23.9921 27.0533 24.1624C27.4622 24.2301 27.882 24.1638 28.25 23.9733C28.618 23.7828 28.9146 23.4783 29.0953 23.1054C32.0713 16.9701 36.892 11.9194 42.882 8.66073C48.872 5.4021 55.7313 4.0988 62.499 4.93338C69.2667 5.76797 75.6039 8.69864 80.6228 13.3149C85.6417 17.9311 89.0909 24.0016 90.4872 30.6761C90.5407 30.9334 90.6463 31.177 90.7976 31.3918C90.9489 31.6067 91.1426 31.7882 91.3669 31.9252C91.5911 32.0622 91.841 32.1518 92.1012 32.1884C92.3614 32.2249 92.6264 32.2078 92.8797 32.138C94.9937 31.5603 97.2068 31.4413 99.3706 31.7889C101.534 32.1365 103.599 32.9426 105.426 34.1533C107.252 35.3639 108.799 36.9511 109.962 38.8084C111.126 40.6657 111.878 42.7503 112.17 44.9223C112.462 47.0943 112.286 49.3036 111.654 51.402C111.022 53.5005 109.949 55.4396 108.507 57.0895C107.064 58.7393 105.286 60.0617 103.29 60.968C101.295 61.8743 99.129 62.3435 96.9375 62.3443H85.0757C84.8239 61.6353 84.4358 60.9824 83.9334 60.4224C84.8825 59.3673 85.4072 57.9979 85.4062 56.5787V48.8912C85.4072 47.4719 84.8825 46.1026 83.9334 45.0474C84.8825 43.9923 85.4072 42.6229 85.4062 41.2037V33.5162C85.4045 31.9876 84.7964 30.5221 83.7156 29.4412C82.6347 28.3604 81.1692 27.7523 79.6406 27.7506H37.3594C35.8308 27.7523 34.3653 28.3604 33.2844 29.4412C32.2036 30.5221 31.5955 31.9876 31.5938 33.5162V41.2037C31.5928 42.6229 32.1175 43.9923 33.0666 45.0474C32.1175 46.1026 31.5928 47.4719 31.5938 48.8912V56.5787C31.5928 57.9979 32.1175 59.3673 33.0666 60.4224C32.5642 60.9824 32.1761 61.6353 31.9243 62.3443H23.9062C18.8109 62.3385 13.9259 60.3118 10.3229 56.7089C6.71997 53.1059 4.69329 48.2209 4.6875 43.1256ZM35.4375 71.9537V64.2662C35.4381 63.7566 35.6407 63.2681 36.001 62.9078C36.3613 62.5475 36.8498 62.3449 37.3594 62.3443H79.6406C80.1502 62.3449 80.6387 62.5475 80.999 62.9078C81.3593 63.2681 81.5619 63.7566 81.5625 64.2662V71.9537C81.5619 72.4632 81.3593 72.9517 80.999 73.312C80.6387 73.6723 80.1502 73.875 79.6406 73.8756H37.3594C36.8498 73.875 36.3613 73.6723 36.001 73.312C35.6407 72.9517 35.4381 72.4632 35.4375 71.9537ZM108.469 91.1724C107.709 91.1724 106.965 90.947 106.333 90.5247C105.701 90.1023 105.209 89.502 104.918 88.7996C104.627 88.0973 104.551 87.3244 104.699 86.5788C104.847 85.8332 105.213 85.1483 105.751 84.6107C106.288 84.0732 106.973 83.7071 107.719 83.5588C108.464 83.4105 109.237 83.4866 109.94 83.7775C110.642 84.0684 111.242 84.5611 111.665 85.1932C112.087 85.8253 112.312 86.5685 112.312 87.3287C112.311 88.3477 111.906 89.3247 111.185 90.0453C110.465 90.7659 109.488 91.1712 108.469 91.1724Z" fill="white"/>
</g>
</svg>
