<svg xmlns="http://www.w3.org/2000/svg" width="193" height="193" viewBox="0 0 193 193" fill="none">
  <path d="M176.778 109.47C184.079 64.9922 153.942 23.0161 109.464 15.7143C64.9855 8.41241 23.0094 38.5498 15.7075 83.0281C8.40566 127.506 38.5431 169.482 83.0214 176.784C127.5 184.086 169.476 153.949 176.778 109.47Z" fill="#F15A29"/>
  <path d="M144.35 144.349C170.924 117.775 170.924 74.6904 144.35 48.1164C117.776 21.5424 74.6905 21.5424 48.1165 48.1164C21.5425 74.6904 21.5425 117.775 48.1165 144.349C74.6905 170.923 117.775 170.923 144.35 144.349Z" fill="#242424"/>
  <path d="M129.16 71.6176L121.149 75.6242L119.357 72.0401L127.37 68.0335L129.16 71.6176Z" fill="white"/>
  <path d="M127.368 103.672L119.355 99.6656L121.147 96.0816L129.16 100.088L127.368 103.672Z" fill="white"/>
  <path d="M122.252 83.8496H130.398V87.8563H122.252V83.8496Z" fill="white"/>
  <path d="M65.0564 68.0352L73.0696 72.0418L71.2776 75.6259L63.2661 71.6193L65.0564 68.0352Z" fill="white"/>
  <path d="M65.0542 103.671L63.2622 100.086L71.2754 96.0799L73.0675 99.6639L65.0542 103.671Z" fill="white"/>
  <path d="M62.0225 83.8496H70.169V87.8563H62.0225V83.8496Z" fill="white"/>
  <path d="M90.2026 128.187H102.222V132.194H90.2026V128.187Z" fill="white"/>
  <path d="M118.246 85.8521C118.246 73.7025 108.36 63.8166 96.2108 63.8166C84.0612 63.8166 74.1753 73.7025 74.1753 85.8521C74.1753 94.1371 78.8517 101.693 86.1952 105.452V111.894H82.1885V115.901H86.1952V124.181H106.226V115.901H110.233V111.894H106.226V105.452C113.57 101.693 118.246 94.1389 118.246 85.8521ZM102.22 120.174H90.2V115.901H102.22V120.174ZM94.2084 89.8587C94.2084 88.754 95.1079 87.8545 96.2108 87.8545C97.3137 87.8545 98.215 88.754 98.215 89.8587C98.215 90.9634 97.3155 91.8629 96.2108 91.8629C95.1062 91.8629 94.2084 90.9634 94.2084 89.8587ZM98.215 111.894V95.5241C100.547 94.6965 102.222 92.4696 102.222 89.8587C102.222 86.5447 99.5248 83.8497 96.2126 83.8497C92.8986 83.8497 90.2035 86.5465 90.2035 89.8587C90.2035 92.4696 91.8781 94.6965 94.2101 95.5241V111.894H90.2035V102.878L89.0059 102.352C82.4323 99.4658 78.1854 92.9904 78.1854 85.8521C78.1854 75.9118 86.2741 67.8232 96.2143 67.8232C106.155 67.8232 114.243 75.9118 114.243 85.8521C114.243 92.9904 109.996 99.4658 103.423 102.352L102.225 102.878V111.894H98.215Z" fill="white"/>
</svg>