<svg width="140" height="140" viewBox="0 0 140 140" fill="none" xmlns="http://www.w3.org/2000/svg">
<g id="fi_7827955">
<g id="Group">
<g id="Group_2">
<path id="Vector" d="M70.7533 133.711H69.2468C67.8376 133.711 66.4537 133.461 65.1336 132.967C50.6153 127.535 38.9495 118.732 30.46 106.803C23.7933 97.4345 19.1694 86.2356 16.7169 73.5173C12.6718 52.5392 15.9474 34.3548 16.0889 33.591C16.8131 29.6803 19.4364 26.4301 23.1062 24.897L65.4749 7.19633C66.9158 6.59429 68.4383 6.28906 70 6.28906C71.5617 6.28906 73.0842 6.59429 74.5251 7.19626L116.894 24.8969C120.564 26.4302 123.187 29.6803 123.911 33.5909C124.053 34.355 127.328 52.5414 123.283 73.5172C120.83 86.2356 116.207 97.4343 109.54 106.803C101.05 118.732 89.3846 127.535 74.8664 132.967C73.5463 133.461 72.1625 133.711 70.7533 133.711ZM70 10.6641C69.0203 10.6641 68.0653 10.8555 67.1614 11.2332L24.7927 28.9338C22.4906 29.8955 20.845 31.9344 20.3907 34.3876C20.2554 35.1181 17.1224 52.5135 21.0128 72.6888C23.3458 84.7877 27.7236 95.4117 34.0245 104.266C41.9986 115.471 52.9809 123.749 66.6665 128.869C67.4946 129.179 68.3627 129.336 69.2467 129.336H70.7532C71.6372 129.336 72.5054 129.179 73.3335 128.869C87.019 123.749 98.0013 115.471 105.975 104.266C112.276 95.4118 116.654 84.7877 118.987 72.6888C122.877 52.5155 119.744 35.1181 119.609 34.3874C119.155 31.9344 117.509 29.8955 115.207 28.9337L72.8386 11.2331C71.9348 10.8555 70.9797 10.6641 70 10.6641Z" fill="white"/>
</g>
<g id="Group_3">
<path id="Vector_2" d="M70.754 124.159H69.2475C68.9858 124.159 68.7262 124.112 68.481 124.021C55.7805 119.269 45.6069 111.613 38.2427 101.264C32.3746 93.0184 28.2878 83.0744 26.0962 71.7085C24.1585 61.6601 24.0912 52.3274 24.376 46.2677C24.6854 39.6832 25.4488 35.5045 25.4811 35.3299C25.6156 34.6037 26.1074 33.9945 26.7888 33.7098L69.1574 16.0092C69.6969 15.7837 70.3042 15.7837 70.8439 16.0092L113.212 33.7098C113.894 33.9945 114.386 34.6037 114.52 35.3299C114.553 35.5046 115.316 39.6833 115.625 46.2677C115.91 52.3274 115.843 61.66 113.905 71.7085C111.713 83.0744 107.627 93.0184 101.759 101.264C94.3944 111.613 84.2208 119.269 71.5203 124.021C71.2753 124.112 71.0157 124.159 70.754 124.159ZM69.6463 119.784H70.3551C91.7119 111.664 104.917 95.213 109.609 70.8802C112.618 55.2771 110.989 41.291 110.401 37.2768L70.0007 20.3983L29.5994 37.277C29.3578 38.9202 28.9404 42.2304 28.7401 46.6055C28.4734 52.4298 28.5479 61.3913 30.4169 71.0083C35.1322 95.2714 48.3287 111.679 69.6463 119.784Z" fill="white"/>
</g>
<g id="Group_4">
<path id="Vector_3" d="M80.5433 97.079H59.4571C53.7944 97.079 49.1875 92.4718 49.1875 86.8087V69.6738C49.1875 64.0107 53.7944 59.4034 59.4571 59.4034H80.5433C86.2059 59.4034 90.8128 64.0107 90.8128 69.6738V86.8087C90.8129 92.4718 86.2059 97.079 80.5433 97.079ZM59.4571 63.7784C56.2068 63.7784 53.5625 66.4231 53.5625 69.6738V86.8087C53.5625 90.0594 56.2068 92.704 59.4571 92.704H80.5433C83.7935 92.704 86.4378 90.0593 86.4378 86.8087V69.6738C86.4378 66.4231 83.7935 63.7784 80.5433 63.7784H59.4571ZM70.0002 80.8553C66.6583 80.8553 63.9395 78.1365 63.9395 74.7946C63.9395 71.4523 66.6583 68.7331 70.0002 68.7331C73.3421 68.7331 76.0609 71.4523 76.0609 74.7946C76.0609 78.1365 73.3421 80.8553 70.0002 80.8553ZM70.0002 73.1081C69.0706 73.1081 68.3145 73.8646 68.3145 74.7946C68.3145 75.7241 69.0707 76.4803 70.0002 76.4803C70.9297 76.4803 71.6859 75.724 71.6859 74.7946C71.6859 73.8646 70.9297 73.1081 70.0002 73.1081Z" fill="white"/>
</g>
<g id="Group_5">
<path id="Vector_4" d="M83.6226 63.7778C82.4144 63.7778 81.4351 62.7984 81.4351 61.5903V54.89C81.4351 48.5848 76.3054 43.4552 70.0002 43.4552C63.6951 43.4552 58.5654 48.5849 58.5654 54.89V61.5903C58.5654 62.7984 57.586 63.7778 56.3779 63.7778C55.1698 63.7778 54.1904 62.7984 54.1904 61.5903V54.89C54.1904 50.667 55.835 46.6969 58.821 43.7108C61.8071 40.7247 65.7773 39.0802 70.0002 39.0802C74.2231 39.0802 78.1934 40.7247 81.1795 43.7108C84.1656 46.6969 85.8101 50.667 85.8101 54.89V61.5903C85.8101 62.7984 84.8307 63.7778 83.6226 63.7778Z" fill="white"/>
</g>
<g id="Group_6">
<path id="Vector_5" d="M70 87.3839C68.7919 87.3839 67.8125 86.4045 67.8125 85.1964V78.6674C67.8125 77.4592 68.7919 76.4799 70 76.4799C71.2081 76.4799 72.1875 77.4592 72.1875 78.6674V85.1964C72.1875 86.4045 71.2081 87.3839 70 87.3839Z" fill="white"/>
</g>
</g>
</g>
</svg>
