<svg width="122" height="122" viewBox="0 0 122 122" fill="none" xmlns="http://www.w3.org/2000/svg">
<g id="fi_2029234">
<g id="035---Data-Science">
<path id="Shape" d="M121.998 31.0005C121.998 26.5822 118.416 23.0005 113.998 23.0005C112.075 23.0079 110.221 23.7137 108.78 24.9865C102.934 21.9865 95.112 20.6505 85.962 21.1225C79.954 8.32452 71.276 1.00052 61.998 1.00052C59.0124 1.02871 56.0771 1.77214 53.438 3.16852C50.3574 0.265567 45.5444 0.278795 42.4799 3.19864C39.4153 6.11848 39.1694 10.9252 41.92 14.1425C40.451 16.3608 39.1538 18.6883 38.04 21.1045C31.347 20.5903 24.6193 21.4395 18.264 23.6005C12.7041 25.3989 8.12147 29.3926 5.58001 34.6545C2.18001 42.3645 4.34601 51.7545 10.746 61.0865C4.86201 69.6725 2.75601 78.0665 4.74601 85.0165C2.4839 86.8502 1.40297 89.7724 1.92718 92.6368C2.4514 95.5012 4.49717 97.8512 7.26209 98.7649C10.027 99.6786 13.0702 99.0105 15.198 97.0225C21.2184 99.8456 27.8198 101.209 34.466 101.001C35.622 101.001 36.828 100.935 38.028 100.873C44.038 113.673 52.716 121.001 61.998 121.001C71.28 121.001 79.952 113.679 85.958 100.889C87.146 100.951 88.334 101.011 89.484 101.011C95.0114 101.115 100.513 100.235 105.732 98.4105C111.292 96.6117 115.875 92.6171 118.416 87.3545C121.816 79.6445 119.648 70.2565 113.25 60.9245C119.134 52.3385 121.25 43.9465 119.25 36.9945C120.99 35.4882 121.992 33.302 121.998 31.0005ZM113.998 27.0005C116.207 27.0005 117.998 28.7914 117.998 31.0005C117.998 33.2097 116.207 35.0005 113.998 35.0005C111.789 35.0005 109.998 33.2097 109.998 31.0005C109.998 28.7914 111.789 27.0005 113.998 27.0005ZM68.306 93.9325C70.622 93.0225 72.948 92.0325 75.264 90.9545C79.4331 89.0085 83.4847 86.8201 87.398 84.4005C86.418 88.624 85.0798 92.7563 83.398 96.7525C78.2947 96.2546 73.2448 95.311 68.306 93.9325ZM89.998 61.0005C90.0091 67.0111 89.5006 73.0115 88.478 78.9345C83.7302 82.1095 78.747 84.9176 73.572 87.3345C69.7934 89.0999 65.921 90.6569 61.972 91.9985C58.0424 90.6515 54.1882 89.0939 50.426 87.3325C45.2583 84.9199 40.2772 82.1262 35.524 78.9745C33.4947 67.0932 33.4947 54.9538 35.524 43.0725C40.2718 39.8976 45.255 37.0894 50.43 34.6725C54.1987 32.9131 58.0605 31.3602 61.998 30.0205C71.3488 33.1994 80.2498 37.5729 88.48 43.0325C89.5034 48.9668 90.0113 54.9786 89.998 61.0005ZM93.032 46.2425C98.7634 50.4215 103.902 55.3585 108.306 60.9185C103.925 66.5273 98.7875 71.5013 93.04 75.6985C93.6848 70.8258 94.0049 65.9157 93.998 61.0005C94.0055 56.0651 93.6828 51.1348 93.032 46.2425ZM40.564 96.6765C38.9028 92.711 37.5814 88.6116 36.614 84.4225C40.5252 86.826 44.5697 89.0055 48.728 90.9505C51.052 92.0365 53.382 93.0045 55.71 93.9185C50.7539 95.2885 45.6849 96.2115 40.564 96.6765ZM55.662 28.0765C53.354 28.9845 51.038 29.9705 48.732 31.0445C44.5662 32.9915 40.518 35.1806 36.608 37.6005C37.5807 33.3872 38.9101 29.2643 40.582 25.2765C45.6809 25.768 50.7269 26.7036 55.662 28.0765ZM30.964 75.7585C25.233 71.579 20.0949 66.6421 15.69 61.0825C20.0709 55.4737 25.2085 50.4997 30.956 46.3025C29.6733 56.0793 29.6733 65.9817 30.956 75.7585H30.964ZM75.268 31.0505C72.952 29.9685 70.63 28.9865 68.308 28.0745C73.2571 26.7081 78.3187 25.7878 83.432 25.3245C85.0929 29.2894 86.4143 33.3881 87.382 37.5765C83.4703 35.1745 79.4258 32.9957 75.268 31.0505ZM47.998 5.00052C50.2071 5.00052 51.998 6.79138 51.998 9.00052C51.998 11.2097 50.2071 13.0005 47.998 13.0005C45.7889 13.0005 43.998 11.2097 43.998 9.00052C43.998 6.79138 45.7889 5.00052 47.998 5.00052ZM45.18 16.4625C46.0787 16.8122 47.0337 16.9945 47.998 17.0005C52.4163 17.0005 55.998 13.4188 55.998 9.00052C55.9868 8.1666 55.8437 7.3397 55.574 6.55052C57.5692 5.55107 59.7665 5.0209 61.998 5.00052C69.356 5.00052 76.442 10.9725 81.702 21.4865C75.0039 22.2278 68.4027 23.6738 62.008 25.8005C55.6058 23.6695 48.9998 22.2084 42.296 21.4405C43.1543 19.7236 44.1175 18.0611 45.18 16.4625ZM9.24001 36.2625C11.3377 31.9776 15.1118 28.7491 19.67 27.3405C24.4545 25.6685 29.4987 24.8626 34.566 24.9605C35.154 24.9605 35.766 25.0085 36.366 25.0245C34.3663 30.0978 32.8632 35.3531 31.878 40.7165C24.8718 45.4182 18.5988 51.1292 13.262 57.6645C8.24801 49.9265 6.54601 42.3545 9.24001 36.2625ZM9.99801 95.0005C7.78887 95.0005 5.99801 93.2096 5.99801 91.0005C5.99801 88.7914 7.78887 87.0005 9.99801 87.0005C12.2071 87.0005 13.998 88.7914 13.998 91.0005C13.998 93.2096 12.2071 95.0005 9.99801 95.0005ZM17.498 93.6945C17.8206 92.8326 17.9899 91.9208 17.998 91.0005C18.0046 88.6038 16.9334 86.331 15.0804 84.8108C13.2275 83.2905 10.7893 82.6838 8.44001 83.1585C7.20801 77.8125 8.89401 71.3385 13.292 64.5085C18.6354 71.0056 24.9019 76.6845 31.892 81.3645C32.876 86.6909 34.3702 91.9103 36.354 96.9505C29.8992 97.3804 23.4349 96.2642 17.498 93.6945ZM61.998 117.001C54.64 117.001 47.554 111.029 42.294 100.515C49.0019 99.7685 55.6125 98.3171 62.016 96.1845C68.4066 98.312 75.0005 99.7711 81.692 100.539C76.432 111.035 69.35 117.001 61.998 117.001ZM114.756 85.7345C112.659 90.0202 108.885 93.2494 104.326 94.6585C98.958 96.5018 93.2859 97.2969 87.618 97.0005C89.6209 91.9215 91.1267 86.6602 92.114 81.2905C99.1207 76.5887 105.394 70.877 110.73 64.3405C115.748 72.0745 117.45 79.6425 114.756 85.7345ZM110.704 57.4925C105.36 50.9953 99.0937 45.3157 92.104 40.6345C91.1203 35.3087 89.6261 30.0899 87.642 25.0505C94.0989 24.619 100.565 25.7353 106.504 28.3065C106.179 29.1681 106.008 30.0799 105.998 31.0005C105.991 33.3973 107.063 35.67 108.916 37.1903C110.768 38.7105 113.207 39.3172 115.556 38.8425C116.798 44.1885 115.102 50.6625 110.704 57.4925Z" fill="white"/>
<path id="Shape_2" d="M39.998 49.0006V57.0006C40.0033 58.4814 40.5593 59.9073 41.558 61.0006C40.5593 62.0939 40.0033 63.5198 39.998 65.0006V73.0006C39.998 76.3143 42.6843 79.0006 45.998 79.0006H77.998C81.3118 79.0006 83.998 76.3143 83.998 73.0006V65.0006C83.9928 63.5198 83.4368 62.0939 82.438 61.0006C83.4368 59.9073 83.9928 58.4814 83.998 57.0006V49.0006C83.998 45.6869 81.3118 43.0006 77.998 43.0006H45.998C42.6843 43.0006 39.998 45.6869 39.998 49.0006ZM79.998 73.0006C79.998 74.1052 79.1026 75.0006 77.998 75.0006H45.998C44.8935 75.0006 43.998 74.1052 43.998 73.0006V65.0006C43.998 63.896 44.8935 63.0006 45.998 63.0006H77.998C79.1026 63.0006 79.998 63.896 79.998 65.0006V73.0006ZM79.998 49.0006V57.0006C79.998 58.1052 79.1026 59.0006 77.998 59.0006H45.998C44.8935 59.0006 43.998 58.1052 43.998 57.0006V49.0006C43.998 47.896 44.8935 47.0006 45.998 47.0006H77.998C79.1026 47.0006 79.998 47.896 79.998 49.0006Z" fill="white"/>
<path id="Path" d="M49.998 54.9998H51.998C53.1026 54.9998 53.998 54.1043 53.998 52.9998C53.998 51.8952 53.1026 50.9998 51.998 50.9998H49.998C48.8935 50.9998 47.998 51.8952 47.998 52.9998C47.998 54.1043 48.8935 54.9998 49.998 54.9998Z" fill="white"/>
<path id="Path_2" d="M65.9971 54.9998H73.9971C75.1016 54.9998 75.9971 54.1043 75.9971 52.9998C75.9971 51.8952 75.1016 50.9998 73.9971 50.9998H65.9971C64.8925 50.9998 63.9971 51.8952 63.9971 52.9998C63.9971 54.1043 64.8925 54.9998 65.9971 54.9998Z" fill="white"/>
<path id="Path_3" d="M51.998 67.0011H49.998C48.8935 67.0011 47.998 67.8965 47.998 69.0011C47.998 70.1057 48.8935 71.0011 49.998 71.0011H51.998C53.1026 71.0011 53.998 70.1057 53.998 69.0011C53.998 67.8965 53.1026 67.0011 51.998 67.0011Z" fill="white"/>
<path id="Path_4" d="M73.9971 67.0011H65.9971C64.8925 67.0011 63.9971 67.8965 63.9971 69.0011C63.9971 70.1057 64.8925 71.0011 65.9971 71.0011H73.9971C75.1016 71.0011 75.9971 70.1057 75.9971 69.0011C75.9971 67.8965 75.1016 67.0011 73.9971 67.0011Z" fill="white"/>
</g>
</g>
</svg>
