<svg width="122" height="122" viewBox="0 0 114 118" fill="none" xmlns="http://www.w3.org/2000/svg">
<path id="Vector" d="M75.75 32.75C76.2469 32.75 76.725 32.5531 77.0756 32.2006L99.0263 10.25H102.345C103.121 12.4269 105.184 14 107.625 14C110.726 14 113.25 11.4762 113.25 8.375C113.25 5.27375 110.726 2.75 107.625 2.75C105.184 2.75 103.121 4.32312 102.345 6.5H98.25C97.7531 6.5 97.275 6.69688 96.9244 7.04938L74.9737 29H72V27.125C72 24.0238 69.4762 21.5 66.375 21.5C63.2738 21.5 60.75 24.0238 60.75 27.125V32.75H51.1856C50.3138 28.4769 46.5281 25.25 42 25.25C39.6525 25.25 37.53 26.1481 35.8838 27.5787L18.5288 14.3263C19.1325 13.0869 19.5 11.7163 19.5 10.25C19.5 5.08063 15.2944 0.875 10.125 0.875C4.95563 0.875 0.75 5.08063 0.75 10.25C0.75 15.4194 4.95563 19.625 10.125 19.625C12.4725 19.625 14.595 18.7269 16.2413 17.2963L33.5962 30.5487C33.2569 31.2444 32.9738 31.97 32.8144 32.7481H19.3106C18.4388 28.4769 14.6512 25.25 10.125 25.25C4.95563 25.25 0.75 29.4556 0.75 34.625C0.75 39.7944 4.95563 44 10.125 44C12.4725 44 14.595 43.1019 16.2413 41.6712L22.9725 46.8125L16.2413 51.9538C14.595 50.5231 12.4725 49.625 10.125 49.625C4.95563 49.625 0.75 53.8306 0.75 59C0.75 64.1694 4.95563 68.375 10.125 68.375C12.4725 68.375 14.595 67.4769 16.2413 66.0462L22.9725 71.1875L16.2413 76.3288C14.595 74.8981 12.4725 74 10.125 74C4.95563 74 0.75 78.2056 0.75 83.375C0.75 88.5444 4.95563 92.75 10.125 92.75C14.6512 92.75 18.4388 89.5231 19.3106 85.25H32.8144C32.9738 86.0281 33.2569 86.7538 33.5962 87.4494L16.2413 100.702C14.595 99.2731 12.4725 98.375 10.125 98.375C4.95563 98.375 0.75 102.581 0.75 107.75C0.75 112.919 4.95563 117.125 10.125 117.125C15.2944 117.125 19.5 112.919 19.5 107.75C19.5 106.284 19.1325 104.913 18.5288 103.676L35.8838 90.4231C37.53 91.8519 39.6525 92.75 42 92.75C46.5262 92.75 50.3138 89.5231 51.1856 85.25H60.75V89C60.75 92.1012 63.2738 94.625 66.375 94.625C69.4762 94.625 72 92.1012 72 89H74.9737L96.9244 110.951C97.275 111.303 97.7531 111.5 98.25 111.5H102.345C103.121 113.677 105.184 115.25 107.625 115.25C110.726 115.25 113.25 112.726 113.25 109.625C113.25 106.524 110.726 104 107.625 104C105.184 104 103.121 105.573 102.345 107.75H99.0263L77.0756 85.7994C76.725 85.4469 76.2469 85.25 75.75 85.25H72V79.625H80.5987L95.0494 94.0756C95.4 94.4281 95.8781 94.625 96.375 94.625H102.345C103.121 96.8019 105.184 98.375 107.625 98.375C110.726 98.375 113.25 95.8512 113.25 92.75C113.25 89.6488 110.726 87.125 107.625 87.125C105.184 87.125 103.121 88.6981 102.345 90.875H97.1513L82.7006 76.4244C82.35 76.0719 81.8719 75.875 81.375 75.875H72V70.25H88.0987L95.0494 77.2006C95.4 77.5531 95.8781 77.75 96.375 77.75H102.345C103.121 79.9269 105.184 81.5 107.625 81.5C110.726 81.5 113.25 78.9762 113.25 75.875C113.25 72.7738 110.726 70.25 107.625 70.25C105.184 70.25 103.121 71.8231 102.345 74H97.1513L90.2006 67.0494C89.85 66.6969 89.3719 66.5 88.875 66.5H72V60.875H102.345C103.121 63.0519 105.184 64.625 107.625 64.625C110.726 64.625 113.25 62.1012 113.25 59C113.25 55.8988 110.726 53.375 107.625 53.375C105.184 53.375 103.121 54.9481 102.345 57.125H72V51.5H88.875C89.3719 51.5 89.85 51.3031 90.2006 50.9506L97.1513 44H102.345C103.121 46.1769 105.184 47.75 107.625 47.75C110.726 47.75 113.25 45.2262 113.25 42.125C113.25 39.0238 110.726 36.5 107.625 36.5C105.184 36.5 103.121 38.0731 102.345 40.25H96.375C95.8781 40.25 95.4 40.4469 95.0494 40.7994L88.0987 47.75H72V42.125H81.375C81.8719 42.125 82.35 41.9281 82.7006 41.5756L97.1513 27.125H102.345C103.121 29.3019 105.184 30.875 107.625 30.875C110.726 30.875 113.25 28.3512 113.25 25.25C113.25 22.1488 110.726 19.625 107.625 19.625C105.184 19.625 103.121 21.1981 102.345 23.375H96.375C95.8781 23.375 95.4 23.5719 95.0494 23.9244L80.5987 38.375H72V32.75H75.75ZM107.625 6.5C108.658 6.5 109.5 7.34 109.5 8.375C109.5 9.41 108.658 10.25 107.625 10.25C106.592 10.25 105.75 9.41 105.75 8.375C105.75 7.34 106.592 6.5 107.625 6.5ZM107.625 107.75C108.658 107.75 109.5 108.59 109.5 109.625C109.5 110.66 108.658 111.5 107.625 111.5C106.592 111.5 105.75 110.66 105.75 109.625C105.75 108.59 106.592 107.75 107.625 107.75ZM107.625 90.875C108.658 90.875 109.5 91.715 109.5 92.75C109.5 93.785 108.658 94.625 107.625 94.625C106.592 94.625 105.75 93.785 105.75 92.75C105.75 91.715 106.592 90.875 107.625 90.875ZM107.625 74C108.658 74 109.5 74.84 109.5 75.875C109.5 76.91 108.658 77.75 107.625 77.75C106.592 77.75 105.75 76.91 105.75 75.875C105.75 74.84 106.592 74 107.625 74ZM107.625 57.125C108.658 57.125 109.5 57.965 109.5 59C109.5 60.035 108.658 60.875 107.625 60.875C106.592 60.875 105.75 60.035 105.75 59C105.75 57.965 106.592 57.125 107.625 57.125ZM107.625 40.25C108.658 40.25 109.5 41.09 109.5 42.125C109.5 43.16 108.658 44 107.625 44C106.592 44 105.75 43.16 105.75 42.125C105.75 41.09 106.592 40.25 107.625 40.25ZM107.625 23.375C108.658 23.375 109.5 24.215 109.5 25.25C109.5 26.285 108.658 27.125 107.625 27.125C106.592 27.125 105.75 26.285 105.75 25.25C105.75 24.215 106.592 23.375 107.625 23.375ZM51.1856 36.5H60.75V57.125H51.1856C50.3138 52.8519 46.5281 49.625 42 49.625C39.6525 49.625 37.53 50.5231 35.8838 51.9538L29.1525 46.8125L35.8838 41.6712C37.53 43.1019 39.6525 44 42 44C46.5262 44 50.3138 40.7731 51.1856 36.5ZM36.375 59C36.375 55.8988 38.8988 53.375 42 53.375C45.1012 53.375 47.625 55.8988 47.625 59C47.625 62.1012 45.1012 64.625 42 64.625C38.8988 64.625 36.375 62.1012 36.375 59ZM42 29C45.1012 29 47.625 31.5238 47.625 34.625C47.625 37.7262 45.1012 40.25 42 40.25C38.8988 40.25 36.375 37.7262 36.375 34.625C36.375 31.5238 38.8988 29 42 29ZM10.125 15.875C7.02375 15.875 4.5 13.3512 4.5 10.25C4.5 7.14875 7.02375 4.625 10.125 4.625C13.2262 4.625 15.75 7.14875 15.75 10.25C15.75 13.3512 13.2262 15.875 10.125 15.875ZM10.125 40.25C7.02375 40.25 4.5 37.7262 4.5 34.625C4.5 31.5238 7.02375 29 10.125 29C13.2262 29 15.75 31.5238 15.75 34.625C15.75 37.7262 13.2262 40.25 10.125 40.25ZM18.5288 38.6994C18.8681 38.0037 19.1513 37.2781 19.3106 36.5H32.8144C32.9738 37.2781 33.2569 38.0037 33.5962 38.6994L26.0625 44.4538L18.5288 38.6994ZM33.5962 54.9256C33.2569 55.6213 32.9738 56.3469 32.8144 57.125H19.3106C19.1513 56.3469 18.8681 55.6213 18.5288 54.9256L26.0625 49.1731L33.5962 54.9256ZM10.125 64.625C7.02375 64.625 4.5 62.1012 4.5 59C4.5 55.8988 7.02375 53.375 10.125 53.375C13.2262 53.375 15.75 55.8988 15.75 59C15.75 62.1012 13.2262 64.625 10.125 64.625ZM18.5288 63.0744C18.8681 62.3787 19.1513 61.6531 19.3106 60.875H32.8144C32.9738 61.6531 33.2569 62.3787 33.5962 63.0744L26.0625 68.8288L18.5288 63.0744ZM32.8144 81.5H19.3106C19.1513 80.7219 18.8681 79.9962 18.5288 79.3006L26.0625 73.5481L33.5962 79.3006C33.2569 79.9962 32.9738 80.7219 32.8144 81.5ZM10.125 89C7.02375 89 4.5 86.4762 4.5 83.375C4.5 80.2738 7.02375 77.75 10.125 77.75C13.2262 77.75 15.75 80.2738 15.75 83.375C15.75 86.4762 13.2262 89 10.125 89ZM10.125 113.375C7.02375 113.375 4.5 110.851 4.5 107.75C4.5 104.649 7.02375 102.125 10.125 102.125C13.2262 102.125 15.75 104.649 15.75 107.75C15.75 110.851 13.2262 113.375 10.125 113.375ZM42 89C38.8988 89 36.375 86.4762 36.375 83.375C36.375 80.2738 38.8988 77.75 42 77.75C45.1012 77.75 47.625 80.2738 47.625 83.375C47.625 86.4762 45.1012 89 42 89ZM51.1856 81.5C50.3138 77.2269 46.5281 74 42 74C39.6525 74 37.53 74.8981 35.8838 76.3288L29.1525 71.1875L35.8838 66.0462C37.53 67.4769 39.6525 68.375 42 68.375C46.5262 68.375 50.3138 65.1481 51.1856 60.875H60.75V81.5H51.1856ZM68.25 89C68.25 90.035 67.4081 90.875 66.375 90.875C65.3419 90.875 64.5 90.035 64.5 89V27.125C64.5 26.09 65.3419 25.25 66.375 25.25C67.4081 25.25 68.25 26.09 68.25 27.125V89Z" fill="white"/>
</svg>
