<svg width="18" height="15" viewBox="0 0 18 15" fill="none" xmlns="http://www.w3.org/2000/svg">
<path d="M5.66262 14.6255C12.4534 14.6255 16.1687 8.99808 16.1687 4.11944C16.1687 3.96124 16.1652 3.79952 16.1582 3.64132C16.8809 3.11865 17.5046 2.47124 18 1.72952C17.3269 2.029 16.6122 2.22459 15.8804 2.3096C16.651 1.84773 17.2279 1.12215 17.5043 0.267374C16.7794 0.696967 15.9867 1.00001 15.1601 1.16351C14.6031 0.57172 13.8667 0.179887 13.0648 0.0485876C12.2628 -0.0827114 11.4399 0.0538371 10.7233 0.437122C10.0067 0.820406 9.43635 1.42908 9.10039 2.16903C8.76442 2.90899 8.68157 3.73901 8.86465 4.53077C7.39687 4.45712 5.96095 4.07583 4.64999 3.41162C3.33902 2.74742 2.18227 1.81513 1.25473 0.675187C0.7833 1.48798 0.639042 2.44978 0.851273 3.36512C1.0635 4.28045 1.6163 5.08064 2.3973 5.60304C1.81097 5.58442 1.23748 5.42656 0.724219 5.14249V5.18819C0.723693 6.04116 1.01857 6.86799 1.55873 7.52813C2.09889 8.18826 2.85099 8.64097 3.68719 8.80929C3.14404 8.9579 2.57399 8.97955 2.02113 8.87257C2.25709 9.60613 2.71618 10.2477 3.33433 10.7078C3.95248 11.1679 4.69884 11.4235 5.46926 11.439C4.16132 12.4664 2.54563 13.0236 0.882422 13.021C0.587465 13.0206 0.292799 13.0025 0 12.9669C1.68964 14.0509 3.65515 14.6266 5.66262 14.6255Z" fill="white"/>
</svg>
