<svg xmlns="http://www.w3.org/2000/svg" width="188" height="188" viewBox="0 0 188 188" fill="none">
  <path d="M174.316 107.051C181.64 62.5771 151.525 20.5864 107.051 13.262C62.5771 5.9376 20.5864 36.0531 13.262 80.5268C5.9376 125.001 36.0531 166.991 80.5269 174.316C125.001 181.64 166.991 151.525 174.316 107.051Z" fill="#F15A29"/>
  <path d="M159.946 109.697C168.725 73.1565 146.22 36.4176 109.679 27.6385C73.1386 18.8595 36.3996 41.3647 27.6205 77.9053C18.8415 114.446 41.3467 151.185 77.8874 159.964C114.428 168.743 151.167 146.238 159.946 109.697Z" fill="#242424"/>
  <path d="M123.866 103.478C122.548 103.478 121.512 102.442 121.512 101.124C121.512 99.8061 122.548 98.7704 123.866 98.7704C125.184 98.7704 126.219 97.7347 126.219 96.4166C126.219 93.2952 124.98 90.3017 122.772 88.0945C120.565 85.8874 117.572 84.6474 114.45 84.6474H109.743C108.424 84.6474 107.389 83.6117 107.389 82.2936C107.389 80.9754 108.424 79.9397 109.743 79.9397C113.65 79.9397 116.804 76.7856 116.804 72.8782C116.804 68.9708 113.65 65.8167 109.743 65.8167C108.424 65.8167 107.389 64.781 107.389 63.4628C107.389 62.1447 108.424 61.109 109.743 61.109C112.864 61.109 115.858 62.349 118.065 64.5561C120.272 66.7633 121.512 69.7568 121.512 72.8782C121.512 75.797 120.476 78.4333 118.687 80.5046C125.702 82.3877 130.927 88.7901 130.927 96.4166C130.927 100.324 127.773 103.478 123.866 103.478ZM67.3735 103.478C63.4662 103.478 60.312 100.324 60.312 96.4166C60.312 88.7901 65.4905 82.3877 72.552 80.5046C70.8101 78.4333 69.7274 75.797 69.7274 72.8782C69.7274 69.7568 70.9673 66.7633 73.1745 64.5561C75.3816 62.349 78.3752 61.109 81.4966 61.109C82.8147 61.109 83.8504 62.1447 83.8504 63.4628C83.8504 64.781 82.8147 65.8167 81.4966 65.8167C77.5892 65.8167 74.435 68.9708 74.435 72.8782C74.435 76.7856 77.5892 79.9397 81.4966 79.9397C82.8147 79.9397 83.8504 80.9754 83.8504 82.2936C83.8504 83.6117 82.8147 84.6474 81.4966 84.6474H76.7889C73.6675 84.6474 70.674 85.8874 68.4668 88.0945C66.2597 90.3017 65.0197 93.2952 65.0197 96.4166C65.0197 97.7347 66.0554 98.7704 67.3735 98.7704C68.6917 98.7704 69.7274 99.8061 69.7274 101.124C69.7274 102.442 68.6917 103.478 67.3735 103.478ZM109.743 117.601H81.4966C77.5892 117.601 74.435 114.447 74.435 110.54V105.832C74.435 96.7461 81.8261 89.3551 90.9119 89.3551H100.327C109.413 89.3551 116.804 96.7461 116.804 105.832V110.54C116.804 114.447 113.65 117.601 109.743 117.601ZM90.9119 94.0627C87.7905 94.0627 84.797 95.3027 82.5898 97.5099C80.3827 99.717 79.1427 102.711 79.1427 105.832V110.54C79.1427 111.858 80.1784 112.893 81.4966 112.893H109.743C111.061 112.893 112.096 111.858 112.096 110.54V105.832C112.096 102.711 110.856 99.717 108.649 97.5099C106.442 95.3027 103.449 94.0627 100.327 94.0627H90.9119Z" fill="white"/>
  <path d="M95.7692 80.5384C92.6478 80.5384 89.6543 79.2984 87.4471 77.0913C85.24 74.8841 84 71.8906 84 68.7692C84 65.6478 85.24 62.6543 87.4471 60.4471C89.6543 58.24 92.6478 57 95.7692 57C98.8906 57 101.884 58.24 104.091 60.4471C106.298 62.6543 107.538 65.6478 107.538 68.7692C107.538 71.8906 106.298 74.8841 104.091 77.0913C101.884 79.2984 98.8906 80.5384 95.7692 80.5384ZM95.7692 61.7077C91.8618 61.7077 88.7077 64.8618 88.7077 68.7692C88.7077 72.6766 91.8618 75.8307 95.7692 75.8307C99.6766 75.8307 102.831 72.6766 102.831 68.7692C102.831 64.8618 99.6766 61.7077 95.7692 61.7077Z" fill="white"/>
</svg>