<svg width="1148" height="246" viewBox="0 0 1148 246" fill="none" xmlns="http://www.w3.org/2000/svg">
<path d="M178.035 130.515H1016.93" stroke="#3C3C3C" stroke-width="1.74403" stroke-linecap="round" stroke-linejoin="round"/>
<path d="M176.778 129.179C184.079 84.7003 153.942 42.7242 109.464 35.4223C64.9855 28.1205 23.0094 58.2579 15.7075 102.736C8.40566 147.214 38.5431 189.191 83.0214 196.492C127.5 203.794 169.476 173.657 176.778 129.179Z" fill="#F15A29"/>
<path d="M144.35 164.057C170.924 137.483 170.924 94.3985 144.35 67.8245C117.776 41.2505 74.6905 41.2505 48.1165 67.8245C21.5425 94.3985 21.5425 137.483 48.1165 164.057C74.6905 190.631 117.775 190.632 144.35 164.057Z" fill="#242424"/>
<path d="M129.16 91.3257L121.149 95.3323L119.357 91.7483L127.37 87.7416L129.16 91.3257Z" fill="white"/>
<path d="M127.368 123.38L119.355 119.374L121.147 115.79L129.16 119.796L127.368 123.38Z" fill="white"/>
<path d="M122.252 103.558H130.398V107.564H122.252V103.558Z" fill="white"/>
<path d="M65.0564 87.7433L73.0696 91.7499L71.2776 95.334L63.2661 91.3274L65.0564 87.7433Z" fill="white"/>
<path d="M65.0542 123.379L63.2622 119.795L71.2754 115.788L73.0675 119.372L65.0542 123.379Z" fill="white"/>
<path d="M62.0225 103.558H70.169V107.564H62.0225V103.558Z" fill="white"/>
<path d="M90.2026 147.895H102.222V151.902H90.2026V147.895Z" fill="white"/>
<path d="M118.246 105.56C118.246 93.4106 108.36 83.5247 96.2108 83.5247C84.0612 83.5247 74.1753 93.4106 74.1753 105.56C74.1753 113.845 78.8517 121.401 86.1952 125.16V131.602H82.1885V135.609H86.1952V143.889H106.226V135.609H110.233V131.602H106.226V125.16C113.57 121.401 118.246 113.847 118.246 105.56ZM102.22 139.882H90.2V135.609H102.22V139.882ZM94.2084 109.567C94.2084 108.462 95.1079 107.563 96.2108 107.563C97.3137 107.563 98.215 108.462 98.215 109.567C98.215 110.671 97.3155 111.571 96.2108 111.571C95.1062 111.571 94.2084 110.671 94.2084 109.567ZM98.215 131.602V115.232C100.547 114.405 102.222 112.178 102.222 109.567C102.222 106.253 99.5248 103.558 96.2126 103.558C92.8986 103.558 90.2035 106.255 90.2035 109.567C90.2035 112.178 91.8781 114.405 94.2101 115.232V131.602H90.2035V122.586L89.0059 122.06C82.4323 119.174 78.1854 112.698 78.1854 105.56C78.1854 95.6199 86.2741 87.5313 96.2143 87.5313C106.155 87.5313 114.243 95.6199 114.243 105.56C114.243 112.698 109.996 119.174 103.423 122.06L102.225 122.586V131.602H98.215Z" fill="white"/>
<path d="M415.632 129.193C422.956 84.7191 392.841 42.7284 348.367 35.404C303.894 28.0796 261.903 58.1951 254.578 102.669C247.254 147.143 277.37 189.133 321.843 196.458C366.317 203.782 408.308 173.667 415.632 129.193Z" fill="#F15A29"/>
<path d="M401.262 131.839C410.042 95.2985 387.536 58.5596 350.996 49.7805C314.455 41.0014 277.716 63.5067 268.937 100.047C260.158 136.588 282.663 173.327 319.204 182.106C355.744 190.885 392.483 168.38 401.262 131.839Z" fill="#242424"/>
<path d="M653.544 134.273C663.654 90.3493 636.242 46.5463 592.318 36.4364C548.394 26.3264 504.591 53.7381 494.481 97.6619C484.371 141.586 511.783 185.389 555.707 195.499C599.631 205.609 643.434 178.197 653.544 134.273Z" fill="#F15A29"/>
<path d="M640.142 131.844C648.921 95.3038 626.416 58.5648 589.875 49.7857C553.334 41.0067 516.595 63.5119 507.816 100.053C499.037 136.593 521.542 173.332 558.083 182.111C594.624 190.89 631.363 168.385 640.142 131.844Z" fill="#242424"/>
<path d="M608.082 140.219H604.089V110.971L608.082 114.964V92.1796H585.298L592.455 99.3371L585.557 106.235L570.107 94.7449L543.941 113.345V76.0777H539.948V144.209H608.08V140.219H608.082ZM568.028 110.934V140.219H556.052V119.449L568.028 110.934ZM572.02 111.124L584.13 120.133V140.219H572.02V111.124ZM588.122 120.608L600.098 108.632V140.219H588.122V120.608ZM570.057 99.6808L585.945 111.497L598.103 99.3389L594.938 96.1739H604.091V105.327L600.926 102.162L586.309 116.779L569.993 104.641L543.944 123.161V118.246L570.057 99.6808ZM543.943 128.057L552.059 122.286V140.219H543.943V128.057Z" fill="white"/>
<path d="M870.591 173.655C902.462 141.783 902.462 90.1097 870.591 58.2385C838.72 26.3672 787.046 26.3672 755.175 58.2385C723.304 90.1097 723.304 141.783 755.175 173.655C787.046 205.526 838.72 205.526 870.591 173.655Z" fill="#F15A29"/>
<path d="M860.999 164.063C887.573 137.489 887.573 94.4041 860.999 67.8301C834.425 41.2561 791.34 41.2561 764.766 67.8301C738.192 94.4041 738.192 137.489 764.766 164.063C791.34 190.637 834.425 190.637 860.999 164.063Z" fill="#242424"/>
<path d="M834.713 92.6106L838.227 89.0967L841.393 92.2634L844.56 89.0967L835.06 79.5983L831.893 82.765L835.06 85.9318L831.25 89.742C827.387 86.9505 823.003 85.0305 818.346 84.0906V78.7952H822.824V74.317H800.433V78.7952H804.911V84.0906C800.254 85.0305 795.871 86.9505 792.008 89.742L788.197 85.9318L791.364 82.765L788.197 79.5983L778.697 89.0985L781.864 92.2652L785.031 89.0985L788.545 92.6124C781.941 98.8704 778.042 107.508 778.042 117.008C778.042 135.61 793.109 150.744 811.629 150.744C830.149 150.744 845.216 135.61 845.216 117.008C845.216 107.964 841.649 99.1843 834.713 92.6106ZM809.391 78.7917H813.87V83.4945C813.128 83.4454 812.381 83.4191 811.63 83.4191C810.88 83.4191 810.133 83.4454 809.391 83.4945V78.7917ZM811.63 146.264C795.579 146.264 782.522 133.14 782.522 117.006C782.522 100.955 795.579 87.8974 811.63 87.8974C827.682 87.8974 840.739 100.955 840.739 117.006C840.738 133.138 827.68 146.264 811.63 146.264Z" fill="white"/>
<path d="M813.87 110.673V92.3756H809.392V110.673C806.786 111.597 804.914 114.087 804.914 117.004C804.914 120.708 807.928 123.722 811.631 123.722C815.334 123.722 818.348 120.708 818.348 117.004C818.348 114.087 816.476 111.599 813.87 110.673ZM811.631 119.245C810.397 119.245 809.392 118.241 809.392 117.006C809.392 115.772 810.397 114.767 811.631 114.767C812.865 114.767 813.87 115.772 813.87 117.006C813.87 118.241 812.865 119.245 811.631 119.245Z" fill="white"/>
<path d="M809.391 137.157H813.869V141.635H809.391V137.157Z" fill="white"/>
<path d="M787 114.767H791.479V119.245H787V114.767Z" fill="white"/>
<path d="M831.783 114.767H836.261V119.245H831.783V114.767Z" fill="white"/>
<path d="M795.797 136.005L792.63 132.838L795.797 129.671L798.964 132.838L795.797 136.005Z" fill="white"/>
<path d="M827.462 104.341L824.295 101.174L827.462 98.0077L830.629 101.174L827.462 104.341Z" fill="white"/>
<path d="M827.462 136.007L824.295 132.84L827.462 129.673L830.629 132.84L827.462 136.007Z" fill="white"/>
<path d="M795.797 104.339L792.63 101.173L795.797 98.006L798.964 101.173L795.797 104.339Z" fill="white"/>
<path d="M1132.26 129.194C1139.59 84.7201 1109.47 42.7294 1065 35.405C1020.52 28.0806 978.533 58.1961 971.209 102.67C963.884 147.144 994 189.134 1038.47 196.459C1082.95 203.783 1124.94 173.668 1132.26 129.194Z" fill="#F15A29"/>
<path d="M1099.88 164.064C1126.46 137.49 1126.46 94.4051 1099.88 67.8311C1073.31 41.2571 1030.22 41.2572 1003.65 67.8312C977.077 94.4052 977.077 137.49 1003.65 164.064C1030.22 190.638 1073.31 190.638 1099.88 164.064Z" fill="#242424"/>
<path d="M1039.64 118.253L1048.72 113.479L1057.8 118.253L1056.07 108.139L1063.42 100.977L1053.26 99.5002L1048.72 90.2964L1044.18 99.5002L1034.02 100.977L1041.37 108.139L1039.64 118.253ZM1046.92 103.267L1048.72 99.6107L1050.53 103.267L1054.56 103.854L1051.64 106.7L1052.33 110.719L1048.72 108.822L1045.11 110.719L1045.8 106.7L1042.88 103.854L1046.92 103.267Z" fill="white"/>
<path d="M1023.85 92.8913C1018.17 92.8913 1013.54 97.5134 1013.54 103.196C1013.54 108.879 1018.17 113.501 1023.85 113.501H1026.77C1028.93 121.053 1034.93 127.012 1042.54 129.142V138.234H1034.86L1030.74 150.737H1026.05V154.86H1071.39V150.737H1066.7L1062.58 138.234H1054.9V129.131C1062.44 126.992 1068.39 121.039 1070.54 113.5H1073.59C1079.27 113.5 1083.9 108.877 1083.9 103.195C1083.9 97.5117 1079.27 92.8896 1073.59 92.8896H1071.39V88.6305H1075.65V84.5081C1072.74 84.5081 1026.05 84.5081 1021.79 84.5081V88.6305H1025.91V92.8896L1023.85 92.8913ZM1023.85 109.381C1020.44 109.381 1017.67 106.607 1017.67 103.198C1017.67 99.7894 1020.44 97.0154 1023.85 97.0154H1025.91V107.32C1025.91 108.015 1025.94 108.702 1026 109.381H1023.85ZM1062.36 150.739H1035.08L1037.84 142.358H1059.6L1062.36 150.739ZM1050.78 138.235H1046.66V129.898C1047.34 129.959 1048.02 129.991 1048.72 129.991C1049.42 129.991 1050.1 129.957 1050.78 129.896V138.235ZM1073.59 97.0137C1077 97.0137 1079.77 99.7876 1079.77 103.196C1079.77 106.605 1077 109.379 1073.59 109.379H1071.3C1071.36 108.7 1071.39 108.013 1071.39 107.319V97.0137H1073.59ZM1067.27 88.6322V107.319C1067.27 117.547 1058.95 125.868 1048.72 125.868C1038.42 125.868 1030.03 117.547 1030.03 107.319V88.6322H1067.27Z" fill="white"/>
<path d="M335.065 204.835V245.482H337.702V204.835H335.065Z" fill="#D2D2D2"/>
<path d="M810.788 204.835V245.481H813.425V204.835H810.788Z" fill="#D2D2D2"/>
<path d="M1047.98 205.956V245.481H1050.61V205.956H1047.98Z" fill="#D2D2D2"/>
<path d="M188.974 117.776C187.458 166.013 147.906 204.659 99.3013 204.659C50.697 204.659 11.1443 166.014 9.62873 117.776H7.06152C8.57883 167.431 49.2791 207.226 99.3013 207.226C149.323 207.226 190.025 167.431 191.541 117.776H188.974Z" fill="#D2D2D2"/>
<path d="M426.576 117.776C425.061 166.013 385.508 204.659 336.904 204.659C288.3 204.659 248.747 166.014 247.231 117.776H244.664C246.181 167.431 286.882 207.226 336.904 207.226C386.926 207.226 427.626 167.431 429.144 117.776H426.576Z" fill="#D2D2D2"/>
<path d="M664.176 117.776C662.66 166.013 623.108 204.659 574.503 204.659C525.899 204.659 486.346 166.014 484.831 117.776H482.264C483.781 167.431 524.481 207.226 574.503 207.226C624.526 207.226 665.228 167.431 666.743 117.776H664.176Z" fill="#D2D2D2"/>
<path d="M901.78 117.776C900.265 166.013 860.712 204.659 812.108 204.659C763.504 204.659 723.951 166.014 722.435 117.776H719.868C721.385 167.431 762.086 207.226 812.108 207.226C862.13 207.226 902.832 167.431 904.348 117.776H901.78Z" fill="#D2D2D2"/>
<path d="M1139.38 117.776C1137.87 166.013 1098.31 204.659 1049.71 204.659C1001.1 204.659 961.551 166.014 960.035 117.776H957.468C958.986 167.431 999.686 207.226 1049.71 207.226C1099.73 207.226 1140.43 167.431 1141.95 117.776H1139.38Z" fill="#D2D2D2"/>
<path d="M191.539 117.775C191.539 103.106 203.43 91.215 218.099 91.215C232.768 91.215 244.659 103.106 244.659 117.775H247.215C247.215 101.693 234.179 88.6565 218.097 88.6565C202.016 88.6565 188.979 101.693 188.979 117.775H191.539Z" fill="#D2D2D2"/>
<path d="M429.141 117.775C429.141 103.106 441.032 91.215 455.701 91.215C470.37 91.215 482.261 103.106 482.261 117.775H484.818C484.818 101.693 471.781 88.6565 455.699 88.6565C439.618 88.6565 426.581 101.693 426.581 117.775H429.141Z" fill="#D2D2D2"/>
<path d="M666.745 117.775C666.745 103.106 678.636 91.215 693.305 91.215C707.974 91.215 719.866 103.106 719.866 117.775H722.423C722.423 101.693 709.386 88.6565 693.305 88.6565C677.223 88.6565 664.187 101.693 664.187 117.775H666.745Z" fill="#D2D2D2"/>
<path d="M904.347 117.775C904.347 103.106 916.238 91.215 930.907 91.215C945.576 91.215 957.467 103.106 957.467 117.775H960.024C960.024 101.693 946.987 88.6565 930.905 88.6565C914.824 88.6565 901.787 101.693 901.787 117.775H904.347Z" fill="#D2D2D2"/>
<path d="M97.9556 204.835V245.481H100.593V204.835H97.9556Z" fill="#D2D2D2"/>
<path d="M573.185 204.836V245.482H575.822V204.836H573.185Z" fill="#D2D2D2"/>
<path d="M336.936 106.789C333.814 106.789 330.821 105.549 328.614 103.342C326.406 101.135 325.167 98.1416 325.167 95.0202C325.167 91.8988 326.406 88.9052 328.614 86.6981C330.821 84.4909 333.814 83.251 336.936 83.251C340.057 83.251 343.051 84.4909 345.258 86.6981C347.465 88.9052 348.705 91.8988 348.705 95.0202C348.705 98.1416 347.465 101.135 345.258 103.342C343.051 105.549 340.057 106.789 336.936 106.789ZM336.936 87.9587C333.028 87.9587 329.874 91.1128 329.874 95.0202C329.874 98.9275 333.028 102.082 336.936 102.082C340.843 102.082 343.997 98.9275 343.997 95.0202C343.997 91.1128 340.843 87.9587 336.936 87.9587Z" fill="white"/>
<path d="M365.182 125.62C363.864 125.62 362.828 124.584 362.828 123.266C362.828 121.948 363.864 120.912 365.182 120.912C366.5 120.912 367.536 119.877 367.536 118.559C367.536 115.437 366.296 112.444 364.089 110.236C361.882 108.029 358.888 106.789 355.767 106.789H351.059C349.741 106.789 348.705 105.754 348.705 104.436C348.705 103.117 349.741 102.082 351.059 102.082C354.966 102.082 358.121 98.9275 358.121 95.0202C358.121 91.1128 354.966 87.9587 351.059 87.9587C349.741 87.9587 348.705 86.923 348.705 85.6048C348.705 84.2867 349.741 83.251 351.059 83.251C354.18 83.251 357.174 84.4909 359.381 86.6981C361.588 88.9052 362.828 91.8988 362.828 95.0202C362.828 97.9389 361.793 100.575 360.004 102.647C367.018 104.53 372.244 110.932 372.244 118.559C372.244 122.466 369.089 125.62 365.182 125.62ZM308.69 125.62C304.783 125.62 301.628 122.466 301.628 118.559C301.628 110.932 306.807 104.53 313.868 102.647C312.127 100.575 311.044 97.9389 311.044 95.0202C311.044 91.8988 312.284 88.9052 314.491 86.6981C316.698 84.4909 319.692 83.251 322.813 83.251C324.131 83.251 325.167 84.2867 325.167 85.6048C325.167 86.923 324.131 87.9587 322.813 87.9587C318.906 87.9587 315.751 91.1128 315.751 95.0202C315.751 98.9275 318.906 102.082 322.813 102.082C324.131 102.082 325.167 103.117 325.167 104.436C325.167 105.754 324.131 106.789 322.813 106.789H318.105C314.984 106.789 311.99 108.029 309.783 110.236C307.576 112.444 306.336 115.437 306.336 118.559C306.336 119.877 307.372 120.912 308.69 120.912C310.008 120.912 311.044 121.948 311.044 123.266C311.044 124.584 310.008 125.62 308.69 125.62ZM351.059 139.743H322.813C318.906 139.743 315.751 136.589 315.751 132.682V127.974C315.751 118.888 323.143 111.497 332.228 111.497H341.644C350.729 111.497 358.121 118.888 358.121 127.974V132.682C358.121 136.589 354.966 139.743 351.059 139.743ZM332.228 116.205C329.107 116.205 326.113 117.445 323.906 119.652C321.699 121.859 320.459 124.853 320.459 127.974V132.682C320.459 134 321.495 135.035 322.813 135.035H351.059C352.377 135.035 353.413 134 353.413 132.682V127.974C353.413 124.853 352.173 121.859 349.966 119.652C347.759 117.445 344.765 116.205 341.644 116.205H332.228Z" fill="white"/>
</svg>
