<svg xmlns="http://www.w3.org/2000/svg" width="196" height="196" viewBox="0 0 196 196" fill="none">
  <path d="M177.368 116.142C187.478 72.2185 160.066 28.4155 116.142 18.3056C72.2186 8.19565 28.4156 35.6073 18.3056 79.5311C8.19572 123.455 35.6073 167.258 79.5312 177.368C123.455 187.478 167.258 160.066 177.368 116.142Z" fill="#F15A29"/>
  <path d="M163.966 113.714C172.745 77.173 150.24 40.434 113.699 31.655C77.1586 22.8759 40.4196 45.3811 31.6406 81.9218C22.8615 118.462 45.3667 155.201 81.9074 163.98C118.448 172.76 155.187 150.254 163.966 113.714Z" fill="#242424"/>
  <path d="M131.906 122.088H127.913V92.8404L131.906 96.833V74.0488H109.122L116.279 81.2063L109.381 88.1043L93.9317 76.614L67.765 95.2146V57.9469H63.7725V126.079H131.904V122.088H131.906ZM91.8521 92.8036V122.088H79.8761V101.318L91.8521 92.8036ZM95.8447 92.993L107.954 102.002V122.088H95.8447V92.993ZM111.947 102.477L123.923 90.5013V122.088H111.947V102.477ZM93.8808 81.55L109.769 93.3664L121.927 81.2081L118.762 78.0431H127.915V87.1961L124.75 84.0311L110.134 98.6478L93.8177 86.5105L67.7685 105.03V100.115L93.8808 81.55ZM67.7668 109.926L75.8835 104.155V122.088H67.7668V109.926Z" fill="white"/>
</svg>