<svg xmlns="http://www.w3.org/2000/svg" width="121" height="37" viewBox="0 0 121 37" fill="none">
  <path d="M34.7521 31.5551C35.3075 31.7574 35.3656 32.1987 34.8791 32.5367L29.7321 36.0993C29.2456 36.4373 28.391 36.5471 27.8356 36.3447C27.8356 36.3447 23.3731 34.7216 22.3765 34.3578C23.6896 33.4494 28.0573 30.4228 29.293 29.5703L34.7521 31.5572V31.5551Z" fill="#F15A29"/>
  <path d="M20.6052 26.4053V33.6899L20.5858 33.7028C16.9112 32.366 5.19001 28.0995 1.71777 26.8359C2.99215 25.9533 7.44169 22.8728 8.63211 22.0483L20.603 26.4053H20.6052Z" fill="url(#paint0_linear_2_114)"/>
  <path d="M6.87606 6.98039V21.3688C6.87606 21.3688 0.0435204 26.1003 0.0112305 26.1218V12.1339C0.039215 11.7593 0.105947 11.3976 0.202817 11.0468C0.934721 8.24615 3.94844 6.33459 6.87606 6.98039Z" fill="url(#paint1_linear_2_114)"/>
  <path d="M7.86228 7.27949L17.4007 10.7517C19.2994 11.6817 20.606 13.6341 20.606 15.8901V33.6905L27.4708 28.9395V10.9347C27.3955 8.56678 25.8822 6.56265 23.7747 5.76617L23.6542 5.72312L20.606 4.61234C20.606 4.61234 11.3819 1.25635 11.3711 1.25205C7.64271 -0.13642 3.21685 1.46516 1.22994 4.86636C-0.238171 7.22352 0.0223003 9.46013 0.011537 12.1337C0.0395215 11.7592 0.106254 11.3975 0.203124 11.0466C0.935027 8.24603 3.94875 6.33447 6.87636 6.98027C7.07871 7.02117 7.86228 7.27949 7.86228 7.27949Z" fill="#26CFD3"/>
  <path d="M53.8862 24.5723L52.1899 26.4623L50.3859 24.8521C49.7423 25.2956 49.0405 25.6421 48.2828 25.894C47.5251 26.1437 46.7006 26.2707 45.8137 26.2707C44.6534 26.2707 43.5943 26.0662 42.6364 25.6594C41.6763 25.2504 40.854 24.6971 40.1673 23.9954C39.4806 23.2936 38.9446 22.4713 38.5571 21.5263C38.1696 20.5812 37.978 19.5802 37.978 18.5211C37.978 17.462 38.1718 16.461 38.5571 15.516C38.9424 14.571 39.487 13.7444 40.1888 13.0362C40.8906 12.3279 41.7193 11.7661 42.6794 11.3506C43.6374 10.9352 44.6965 10.7285 45.8568 10.7285C47.017 10.7285 48.074 10.933 49.0341 11.3399C49.992 11.7489 50.8165 12.3021 51.5032 13.0039C52.1899 13.7056 52.7259 14.528 53.1134 15.473C53.5008 16.418 53.6924 17.419 53.6924 18.4781C53.6924 19.337 53.559 20.1593 53.2942 20.9472C53.0294 21.7351 52.6527 22.4584 52.1662 23.1149L53.884 24.5744L53.8862 24.5723ZM45.8568 20.9235L47.5531 18.9904L50.1513 21.3519C50.4096 20.9515 50.6012 20.5102 50.7304 20.0323C50.8595 19.5523 50.9241 19.0485 50.9241 18.519C50.9241 17.7892 50.7993 17.0982 50.5474 16.4481C50.2977 15.798 49.9468 15.2276 49.4947 14.7411C49.0448 14.2546 48.5045 13.8692 47.8738 13.5808C47.2431 13.2945 46.5564 13.1524 45.8137 13.1524C45.0689 13.1524 44.3865 13.2923 43.7644 13.57C43.1423 13.8477 42.6084 14.2287 42.1649 14.7088C41.7215 15.1888 41.3749 15.7528 41.1231 16.4051C40.8734 17.0573 40.7463 17.7462 40.7463 18.4759C40.7463 19.2057 40.8712 19.8967 41.1231 20.5468C41.3728 21.199 41.7237 21.7673 42.1757 22.2538C42.6256 22.7404 43.1659 23.1278 43.7967 23.4141C44.4252 23.7004 45.1141 23.8425 45.8568 23.8425C46.3583 23.8425 46.8233 23.7779 47.2517 23.6488C47.6801 23.5196 48.074 23.3409 48.4335 23.1128L45.8568 20.9235Z" fill="white"/>
  <path d="M58.9118 26.0125H56.292V14.6766H58.9118V17.2318C59.2691 16.3729 59.7771 15.6862 60.4359 15.1717C61.0946 14.6572 61.9233 14.4204 62.9265 14.4635V17.2124H62.7758C62.2032 17.2124 61.6801 17.305 61.2087 17.4923C60.7372 17.6774 60.3282 17.9572 59.986 18.3296C59.6415 18.702 59.3768 19.1713 59.1916 19.7353C59.0065 20.3015 58.9118 20.9559 58.9118 21.7007V26.0168V26.0125Z" fill="white"/>
  <path d="M65.1333 14.6768V26.0127H67.7531V14.6768H65.1333Z" fill="white"/>
  <path d="M67.8399 10.4677H65.0285V12.9368H67.8399V10.4677Z" fill="#F15A29"/>
  <path d="M81.5579 22.6414C81.2501 23.3582 80.8282 23.9825 80.2922 24.5206C79.7562 25.0567 79.1147 25.4829 78.3699 25.7972C77.625 26.1115 76.8178 26.2686 75.9438 26.2686C75.0849 26.2686 74.2863 26.1136 73.5501 25.8079C72.8139 25.5001 72.1767 25.0782 71.6385 24.5422C71.1025 24.0062 70.6827 23.3819 70.3835 22.6737C70.0821 21.9654 69.9336 21.2034 69.9336 20.3875C69.9336 19.5717 70.0864 18.8032 70.3943 18.0799C70.7021 17.3566 71.124 16.728 71.66 16.1899C72.196 15.6538 72.8332 15.2276 73.5716 14.9133C74.3078 14.599 75.1129 14.4419 75.9869 14.4419C76.8587 14.4419 77.6638 14.5969 78.4022 14.9026C79.1384 15.2104 79.7755 15.6323 80.3137 16.1683C80.8497 16.7043 81.2695 17.3308 81.5687 18.0476C81.8701 18.7644 82.0186 19.5286 82.0186 20.3445C82.0186 21.1603 81.8636 21.9267 81.5579 22.6414ZM79.1448 18.9711C78.9748 18.5276 78.7358 18.138 78.4301 17.8C78.1245 17.4642 77.7607 17.1995 77.3409 17.0057C76.9211 16.812 76.4562 16.7151 75.9438 16.7151C75.4315 16.7151 74.9665 16.812 74.5467 17.0057C74.127 17.1995 73.7675 17.4599 73.4704 17.7893C73.1712 18.1186 72.943 18.5018 72.788 18.9388C72.6309 19.3758 72.5534 19.8451 72.5534 20.3445C72.5534 20.8461 72.6395 21.3218 72.8095 21.7717C72.9796 22.2216 73.2185 22.6134 73.5242 22.9427C73.8299 23.2721 74.1937 23.5326 74.6135 23.7263C75.0332 23.9201 75.4918 24.0169 75.989 24.0169C76.5143 24.0169 76.9879 23.9201 77.4076 23.7263C77.8274 23.5326 78.1869 23.2721 78.484 22.9427C78.7832 22.6134 79.0114 22.2302 79.1663 21.7932C79.3235 21.3562 79.401 20.8891 79.401 20.3875C79.401 19.886 79.3149 19.4145 79.1448 18.9711Z" fill="white"/>
  <path d="M92.1773 25.6788C91.4627 26.0727 90.5521 26.2686 89.4499 26.2686C88.6061 26.2686 87.8247 26.1136 87.11 25.8079C86.3931 25.5001 85.7732 25.0782 85.2458 24.5422C84.7184 24.0062 84.3072 23.3819 84.0123 22.6737C83.7174 21.9654 83.5688 21.2034 83.5688 20.3875C83.5688 19.5717 83.7174 18.8053 84.0123 18.0907C84.3072 17.376 84.7205 16.7452 85.2458 16.2006C85.7732 15.656 86.3974 15.2276 87.1207 14.9133C87.844 14.599 88.6276 14.4419 89.4714 14.4419C90.5456 14.4419 91.4368 14.6206 92.145 14.9779C92.8533 15.3352 93.4732 15.8088 94.0028 16.3944L92.3926 18.1337C91.9922 17.7182 91.566 17.3781 91.1161 17.1133C90.6662 16.8486 90.1108 16.7151 89.4521 16.7151C88.9806 16.7151 88.5436 16.812 88.1432 17.0057C87.7429 17.1995 87.3984 17.4599 87.1121 17.7893C86.8258 18.1186 86.5998 18.5018 86.4362 18.9388C86.2704 19.3758 86.1886 19.8451 86.1886 20.3445C86.1886 20.8439 86.2704 21.339 86.4362 21.7825C86.5998 22.2259 86.8344 22.6134 87.1336 22.9427C87.435 23.2721 87.7924 23.5326 88.2078 23.7263C88.6233 23.9201 89.0797 24.0169 89.5812 24.0169C90.1969 24.0169 90.7372 23.8856 91.2022 23.6208C91.6672 23.3561 92.1063 23.0159 92.5218 22.6005L94.0889 24.1461C93.5314 24.7768 92.8942 25.287 92.1773 25.6809V25.6788Z" fill="white"/>
  <path d="M95.9702 26.0127V14.6768H98.59V26.0127H95.9702Z" fill="white"/>
  <path d="M98.6737 10.4677H95.8623V12.9368H98.6737V10.4677Z" fill="#F15A29"/>
  <path d="M105.148 22.4644C105.148 22.966 105.268 23.3298 105.514 23.5515C105.757 23.7733 106.101 23.8852 106.545 23.8852C107.102 23.8852 107.64 23.756 108.155 23.4977V25.6224C107.826 25.8075 107.475 25.9518 107.102 26.0508C106.73 26.1498 106.301 26.2015 105.815 26.2015C105.328 26.2015 104.904 26.1433 104.5 26.0293C104.095 25.9152 103.746 25.7279 103.449 25.4696C103.154 25.2112 102.926 24.8711 102.767 24.447C102.607 24.0251 102.528 23.4977 102.528 22.8648V16.8826H101.09V14.6718H102.528V11.5591H105.148V14.6718H108.196V16.8826H105.148V22.4601V22.4644Z" fill="white"/>
  <path d="M116.488 26.3334C116.26 26.9211 116.023 27.414 115.78 27.8144C115.537 28.2148 115.265 28.5399 114.964 28.7917C114.663 29.0414 114.333 29.2244 113.976 29.3385C113.619 29.4526 113.21 29.5107 112.753 29.5107C112.209 29.5107 111.726 29.4483 111.304 29.3256C110.883 29.2029 110.471 29.0328 110.071 28.8154L110.951 26.8694C111.195 26.9986 111.442 27.1019 111.692 27.1816C111.942 27.259 112.204 27.2999 112.476 27.2999C112.848 27.2999 113.156 27.2074 113.399 27.0223C113.642 26.8371 113.87 26.4927 114.086 25.9933L109.363 14.6768H112.133L115.354 23.0915L118.294 14.6768H121L116.492 26.3334H116.488Z" fill="white"/>
  <defs>
    <linearGradient id="paint0_linear_2_114" x1="25.0203" y1="31.8365" x2="7.87007" y2="25.3828" gradientUnits="userSpaceOnUse">
      <stop stop-color="#0B5B6D"/>
      <stop offset="0.31" stop-color="#178F9A"/>
      <stop offset="0.66" stop-color="#26CFD3"/>
    </linearGradient>
    <linearGradient id="paint1_linear_2_114" x1="3.44472" y1="10.0199" x2="3.44472" y2="31.0127" gradientUnits="userSpaceOnUse">
      <stop stop-color="#0B5B6D"/>
      <stop offset="0.5" stop-color="#26CFD3"/>
    </linearGradient>
  </defs>
</svg>