<svg width="128" height="124" viewBox="0 0 128 124" fill="none" xmlns="http://www.w3.org/2000/svg">
<g id="Group 1000004435">
<path id="Vector" d="M41.6417 52.4801C41.9395 52.8901 42.3817 53.1719 42.8792 53.2684C43.3767 53.365 43.8923 53.269 44.3217 53.0001C44.7372 52.7018 45.0226 52.2558 45.1193 51.7536C45.216 51.2514 45.1167 50.7313 44.8417 50.3001C44.0478 49.0865 43.021 48.0425 41.8206 47.2286C40.6203 46.4148 39.2704 45.8473 37.8491 45.5589C36.4279 45.2706 34.9635 45.2672 33.5409 45.5489C32.1183 45.8306 30.7658 46.3918 29.5617 47.2C29.2644 47.5311 29.0861 47.9518 29.0548 48.3956C29.0235 48.8394 29.141 49.281 29.3889 49.6504C29.6367 50.0199 30.0007 50.2962 30.4232 50.4356C30.8457 50.575 31.3027 50.5695 31.7217 50.4201C32.5073 49.9008 33.3879 49.5421 34.3127 49.3646C35.2376 49.187 36.1884 49.1942 37.1104 49.3857C38.0324 49.5772 38.9075 49.9492 39.6852 50.4802C40.4629 51.0113 41.1278 51.6909 41.6417 52.4801Z" fill="white"/>
<path id="Vector_2" d="M33.2613 80.8407C32.3393 80.6504 31.4641 80.2797 30.6859 79.7498C29.9078 79.2199 29.2421 78.5414 28.7272 77.7532C28.2123 76.9651 27.8584 76.0829 27.6857 75.1574C27.5131 74.232 27.5252 73.2815 27.7213 72.3607C27.6658 71.9344 27.4743 71.5374 27.1754 71.2285C26.8765 70.9195 26.486 70.7151 26.0618 70.6455C25.6376 70.5759 25.2022 70.6449 24.8203 70.8422C24.4383 71.0394 24.1301 71.3545 23.9413 71.7407C23.6441 73.161 23.6319 74.6262 23.9055 76.0512C24.179 77.4762 24.7327 78.8328 25.5346 80.0421C26.3365 81.2515 27.3705 82.2895 28.5768 83.0961C29.783 83.9027 31.1374 84.4617 32.5613 84.7408H32.9413C33.3727 84.6646 33.7671 84.4488 34.0639 84.1268C34.3608 83.8047 34.5437 83.3941 34.5846 82.9579C34.6255 82.5218 34.5221 82.0843 34.2903 81.7127C34.0584 81.3411 33.711 81.0558 33.3013 80.9008L33.2613 80.8407Z" fill="white"/>
<path id="Vector_3" d="M43.9408 72.5407C43.9748 72.2359 43.9382 71.9272 43.8339 71.6388C43.7295 71.3503 43.5602 71.0897 43.339 70.8771C43.1179 70.6646 42.8508 70.5057 42.5584 70.4129C42.266 70.32 41.9562 70.2957 41.6529 70.3418C41.3496 70.3878 41.061 70.503 40.8093 70.6784C40.5577 70.8539 40.3498 71.0848 40.2017 71.3535C40.0536 71.6221 39.9692 71.9212 39.9552 72.2277C39.9412 72.5341 39.9979 72.8397 40.1208 73.1207C40.464 75.7476 41.747 78.1613 43.7326 79.9152C45.7181 81.6691 48.2717 82.6444 50.9208 82.6608C51.4559 82.6673 51.9908 82.6339 52.5208 82.5608C53.0232 82.4723 53.4728 82.1953 53.7776 81.7864C54.0825 81.3774 54.2196 80.8674 54.1609 80.3608C54.0724 79.8584 53.7954 79.4088 53.3865 79.104C52.9775 78.7991 52.4675 78.662 51.9608 78.7208C50.0778 78.9646 48.1751 78.4505 46.6711 77.2915C45.1671 76.1326 44.185 74.4237 43.9408 72.5407Z" fill="white"/>
<path id="Vector_4" d="M120.642 75.6005C119.047 75.6043 117.497 76.1305 116.229 77.0984C114.961 78.0664 114.046 79.4229 113.622 80.9605H106.922L96.7617 69.3005C96.5769 69.0958 96.3519 68.9315 96.1006 68.8179C95.8494 68.7043 95.5774 68.6439 95.3017 68.6405H68.2416V64.9005V54.9005H95.3017C95.5774 54.897 95.8494 54.8366 96.1006 54.723C96.3519 54.6095 96.5769 54.4452 96.7617 54.2405L106.922 42.5804H113.622C114.091 44.2889 115.165 45.7691 116.643 46.7463C118.121 47.7236 119.903 48.1316 121.659 47.8947C123.415 47.6578 125.025 46.792 126.191 45.458C127.357 44.124 128 42.4123 128 40.6404C128 38.8686 127.357 37.1569 126.191 35.8228C125.025 34.4888 123.415 33.623 121.659 33.3861C119.903 33.1492 118.121 33.5572 116.643 34.5345C115.165 35.5117 114.091 36.9919 113.622 38.7004H106.042C105.766 38.7038 105.494 38.7642 105.243 38.8778C104.991 38.9914 104.766 39.1557 104.582 39.3604L94.4217 51.0204H68.2416V43.7404H93.6017C93.8802 43.7423 94.1557 43.6823 94.4082 43.5647C94.6607 43.4471 94.8839 43.2748 95.0617 43.0604L102.142 34.7404C102.445 34.3912 102.608 33.9427 102.602 33.4804V25.7404C104.294 25.2712 105.758 24.2046 106.724 22.7383C107.69 21.272 108.092 19.5053 107.855 17.7654C107.619 16.0255 106.759 14.4304 105.437 13.2756C104.114 12.1207 102.418 11.4843 100.662 11.4843C98.9058 11.4843 97.2094 12.1207 95.8867 13.2756C94.564 14.4304 93.7047 16.0255 93.468 17.7654C93.2312 19.5053 93.633 21.272 94.599 22.7383C95.565 24.2046 97.0296 25.2712 98.7217 25.7404V32.8204L92.7216 39.8604H68.2416V30.5804H77.1016C77.4223 30.5821 77.7387 30.5067 78.0241 30.3605C78.3095 30.2143 78.5556 30.0016 78.7416 29.7404L81.2216 25.7404C81.8707 25.937 82.5435 26.0446 83.2216 26.0604C84.6685 26.0682 86.0852 25.6471 87.2929 24.8502C88.5006 24.0533 89.445 22.9164 90.0069 21.5831C90.5688 20.2497 90.7229 18.7798 90.4498 17.3589C90.1768 15.938 89.4887 14.6299 88.4726 13.5998C87.4565 12.5698 86.1579 11.8639 84.7409 11.5715C83.3238 11.2791 81.8519 11.4131 80.511 11.9568C79.1702 12.5004 78.0205 13.4292 77.2072 14.6259C76.3939 15.8226 75.9535 17.2335 75.9416 18.6803C75.9498 20.5226 76.6659 22.2913 77.9416 23.6204L75.9416 26.7004H68.2416V11.9603C68.2416 11.8603 68.2416 11.8003 68.2416 11.7203C68.261 11.581 68.261 11.4396 68.2416 11.3003C67.0861 7.98345 64.9225 5.11087 62.0535 3.08465C59.1846 1.05844 55.7538 -0.0200049 52.2415 0.000281024C48.9906 0.0241665 45.8145 0.978637 43.0889 2.75079C40.3633 4.52295 38.2023 7.03864 36.8615 10.0003C34.3388 9.2135 31.6665 9.03069 29.0601 9.46662C26.4538 9.90255 23.9864 10.945 21.857 12.5099C19.7277 14.0748 17.996 16.1183 16.8017 18.4756C15.6073 20.8328 14.9838 23.4378 14.9814 26.0804C14.9718 27.63 15.1874 29.1728 15.6214 30.6604C13.2426 31.423 11.0619 32.7022 9.23554 34.4065C7.40917 36.1108 5.98231 38.1979 5.0572 40.5183C4.13209 42.8387 3.73162 45.335 3.88448 47.8284C4.03734 50.3217 4.73974 52.7504 5.94137 54.9405C3.81136 56.5961 2.15431 58.7828 1.13653 61.2813C0.118743 63.7797 -0.223965 66.5019 0.142801 69.1746C0.509566 71.8473 1.5729 74.3766 3.22608 76.5085C4.87926 78.6404 7.06413 80.2999 9.56138 81.3205C8.03257 83.7399 7.14319 86.5079 6.97663 89.3649C6.81007 92.222 7.37179 95.0745 8.60912 97.6551C9.84645 100.236 11.7189 102.46 14.0508 104.119C16.3827 105.778 19.0978 106.818 21.9414 107.141C22.042 109.72 22.7903 112.233 24.1174 114.448C25.4445 116.662 27.3076 118.507 29.5352 119.812C31.7627 121.117 34.2829 121.84 36.8635 121.915C39.4441 121.99 42.002 121.414 44.3015 120.241C47.003 122.35 50.3343 123.491 53.7615 123.481C56.8756 123.466 59.913 122.514 62.4779 120.748C65.0429 118.982 67.0165 116.484 68.1416 113.581C68.1593 113.428 68.1593 113.273 68.1416 113.121C68.1512 113.041 68.1512 112.96 68.1416 112.881V96.8806H75.9416L77.9416 99.9606C76.6659 101.29 75.9498 103.058 75.9416 104.901C75.9376 106.349 76.3636 107.766 77.1655 108.973C77.9674 110.179 79.1093 111.121 80.4465 111.678C81.7837 112.235 83.2561 112.383 84.6774 112.102C86.0986 111.822 87.4048 111.127 88.4305 110.104C89.4563 109.081 90.1554 107.777 90.4395 106.356C90.7236 104.936 90.5798 103.463 90.0263 102.124C89.4729 100.785 88.5347 99.6409 87.3305 98.8356C86.1263 98.0304 84.7102 97.6006 83.2616 97.6006C82.5835 97.6163 81.9107 97.724 81.2616 97.9206L78.7416 93.7406C78.5646 93.4645 78.3225 93.2362 78.0365 93.0758C77.7505 92.9154 77.4294 92.8277 77.1016 92.8206H68.2416V83.7405H92.7017L98.7017 90.7806V97.7406C96.9822 98.2104 95.4917 99.2883 94.5069 100.774C93.5221 102.26 93.11 104.052 93.347 105.819C93.584 107.586 94.4541 109.206 95.7957 110.38C97.1373 111.553 98.8592 112.2 100.642 112.2C102.424 112.2 104.146 111.553 105.488 110.38C106.829 109.206 107.699 107.586 107.936 105.819C108.173 104.052 107.761 102.26 106.776 100.774C105.792 99.2883 104.301 98.2104 102.582 97.7406V89.9406C102.588 89.4783 102.425 89.0297 102.122 88.6806L95.0417 80.4005C94.8639 80.1861 94.6407 80.0139 94.3882 79.8963C94.1357 79.7787 93.8602 79.7187 93.5816 79.7205H68.2416V72.5205H94.4217L104.582 84.1806C104.766 84.3853 104.991 84.5496 105.243 84.6631C105.494 84.7767 105.766 84.8371 106.042 84.8406H113.622C113.983 86.1526 114.705 87.3375 115.704 88.2613C116.704 89.1852 117.942 89.8112 119.278 90.0687C120.614 90.3262 121.996 90.205 123.267 89.7187C124.539 89.2324 125.649 88.4004 126.472 87.3167C127.295 86.2329 127.799 84.9406 127.927 83.5856C128.055 82.2306 127.801 80.8668 127.195 79.6483C126.588 78.4298 125.653 77.4051 124.496 76.6898C123.338 75.9746 122.003 75.5973 120.642 75.6005ZM120.642 37.1404C121.322 37.1404 121.987 37.3422 122.553 37.7201C123.119 38.0981 123.56 38.6354 123.82 39.264C124.08 39.8926 124.148 40.5842 124.016 41.2515C123.883 41.9188 123.555 42.5318 123.074 43.0129C122.593 43.494 121.98 43.8216 121.313 43.9543C120.646 44.0871 119.954 44.0189 119.325 43.7586C118.697 43.4982 118.159 43.0573 117.781 42.4916C117.403 41.9259 117.202 41.2608 117.202 40.5804C117.202 39.6681 117.564 38.7931 118.209 38.148C118.854 37.5028 119.729 37.1404 120.642 37.1404ZM97.2417 18.6803C97.2377 17.9983 97.4366 17.3304 97.8131 16.7617C98.1895 16.1929 98.7266 15.7489 99.356 15.4861C99.9854 15.2232 100.679 15.1534 101.348 15.2855C102.017 15.4176 102.632 15.7456 103.114 16.2279C103.596 16.7102 103.924 17.325 104.057 17.9942C104.189 18.6633 104.119 19.3566 103.856 19.986C103.593 20.6154 103.149 21.1525 102.58 21.5289C102.012 21.9054 101.344 22.1043 100.662 22.1004C99.7563 22.0951 98.8894 21.7331 98.2492 21.0929C97.6089 20.4526 97.2469 19.5858 97.2417 18.6803ZM83.2416 15.2403C83.922 15.2403 84.5871 15.4421 85.1528 15.8201C85.7185 16.1981 86.1594 16.7353 86.4198 17.3639C86.6801 17.9925 86.7483 18.6842 86.6155 19.3515C86.4828 20.0187 86.1552 20.6317 85.6741 21.1128C85.193 21.5939 84.58 21.9215 83.9127 22.0543C83.2454 22.187 82.5538 22.1189 81.9252 21.8585C81.2966 21.5981 80.7593 21.1572 80.3814 20.5915C80.0034 20.0258 79.8016 19.3607 79.8016 18.6803C79.8016 18.2269 79.8912 17.7779 80.0654 17.3593C80.2395 16.9406 80.4947 16.5605 80.8162 16.2408C81.1378 15.9211 81.5194 15.6681 81.939 15.4964C82.3587 15.3247 82.8082 15.2377 83.2616 15.2403H83.2416ZM64.3416 28.6404V37.7404C62.6298 36.8914 60.7243 36.509 58.8175 36.6319C56.9107 36.7549 55.0701 37.3787 53.4815 38.4404C53.0661 38.7386 52.7807 39.1847 52.6839 39.6869C52.5872 40.1891 52.6866 40.7092 52.9615 41.1404C53.2592 41.5505 53.7015 41.8323 54.199 41.9288C54.6965 42.0253 55.2121 41.9294 55.6415 41.6604C56.9581 40.7679 58.542 40.3563 60.1266 40.4947C61.7111 40.6331 63.1996 41.3132 64.3416 42.4204V52.8605V60.8605C62.6319 60.0001 60.7231 59.6131 58.8134 59.7397C56.9036 59.8663 55.0626 60.5019 53.4815 61.5805C53.1792 61.9123 52.9972 62.3361 52.9649 62.7839C52.9327 63.2316 53.0519 63.6772 53.3036 64.0489C53.5553 64.4206 53.9247 64.6969 54.3524 64.8332C54.7801 64.9695 55.2412 64.958 55.6615 64.8005C56.9693 63.9007 58.548 63.4809 60.13 63.6121C61.712 63.7433 63.1999 64.4175 64.3416 65.5205V70.4405V81.7405V94.8406V112.421C63.7149 113.97 62.7574 115.364 61.536 116.505C60.3147 117.646 58.8589 118.507 57.2703 119.027C55.6818 119.547 53.9989 119.714 52.3393 119.516C50.6796 119.318 49.0831 118.76 47.6615 117.881C49.4389 116.296 50.6448 114.17 51.0931 111.831C51.5413 109.492 51.2069 107.07 50.1415 104.941C50.0806 104.64 49.9514 104.357 49.7639 104.115C49.5764 103.872 49.3355 103.676 49.0599 103.541C48.7844 103.406 48.4815 103.336 48.1748 103.337C47.8681 103.338 47.5657 103.41 47.291 103.547C47.0163 103.683 46.7767 103.881 46.5908 104.125C46.4048 104.369 46.2774 104.652 46.2185 104.953C46.1596 105.254 46.1707 105.565 46.251 105.861C46.3313 106.157 46.4786 106.431 46.6815 106.661C47.091 107.508 47.3283 108.428 47.3798 109.368C47.4314 110.308 47.2961 111.249 46.9818 112.136C46.6674 113.023 46.1803 113.839 45.5486 114.537C44.9169 115.234 44.1532 115.8 43.3015 116.201C43.1491 116.298 43.0082 116.412 42.8815 116.541C41.1577 117.52 39.2091 118.036 37.2263 118.038C35.2435 118.039 33.2943 117.526 31.5691 116.548C29.8439 115.571 28.4019 114.163 27.384 112.461C26.366 110.759 25.8069 108.823 25.7614 106.841C29.1614 105.861 35.5815 103.401 36.5215 98.5606C36.6053 98.0557 36.4923 97.5378 36.2058 97.1137C35.9193 96.6896 35.4812 96.3914 34.9815 96.2806C34.4937 96.2046 33.9951 96.3117 33.5816 96.5813C33.1681 96.8508 32.8689 97.2637 32.7415 97.7406C32.1615 100.621 26.1214 102.761 23.7214 103.281C21.2234 103.246 18.7881 102.493 16.707 101.111C14.626 99.7282 12.9873 97.7755 11.9872 95.4861C10.987 93.1967 10.6677 90.6677 11.0675 88.2015C11.4673 85.7354 12.5692 83.4367 14.2414 81.5805C14.4848 81.3157 14.6522 80.9902 14.7261 80.6382C14.8001 80.2863 14.7777 79.9209 14.6614 79.5805C14.545 79.2583 14.3478 78.9713 14.0886 78.7472C13.8295 78.523 13.5171 78.3692 13.1814 78.3005C10.8979 77.8526 8.80393 76.7225 7.17623 75.0594C5.54854 73.3963 4.46367 71.2786 4.06495 68.986C3.66623 66.6933 3.97242 64.3337 4.94307 62.2187C5.91371 60.1038 7.50315 58.333 9.50138 57.1405C10.281 56.6163 11.1568 56.252 12.0782 56.0687C12.9996 55.8855 13.9482 55.8869 14.8691 56.073C15.7899 56.259 16.6647 56.6259 17.4427 57.1525C18.2207 57.679 18.8865 58.3547 19.4014 59.1405C19.5835 59.3962 19.8232 59.6056 20.1011 59.7515C20.3791 59.8974 20.6875 59.9759 21.0014 59.9805C21.3935 59.9774 21.776 59.8592 22.1014 59.6405C22.5136 59.3393 22.795 58.8918 22.888 58.3898C22.981 57.8878 22.8784 57.3693 22.6014 56.9405C21.1767 54.7974 19.0444 53.2228 16.577 52.4917C14.1095 51.7606 11.4637 51.9194 9.10138 52.9405C8.18175 51.2256 7.66068 49.3255 7.57697 47.3815C7.49326 45.4374 7.84906 43.4995 8.61788 41.712C9.3867 39.9245 10.5488 38.3334 12.0176 37.0571C13.4864 35.7808 15.2241 34.8522 17.1014 34.3404C17.8633 35.5965 18.9342 36.6366 20.2121 37.3613C21.4901 38.086 22.9323 38.4713 24.4014 38.4804C25.4047 38.4849 26.4006 38.3087 27.3414 37.9604C27.6455 37.9317 27.9389 37.8337 28.1993 37.674C28.4596 37.5143 28.6799 37.2971 28.8432 37.039C29.0066 36.781 29.1087 36.4889 29.1417 36.1853C29.1747 35.8817 29.1377 35.5745 29.0336 35.2874C28.9294 35.0003 28.761 34.7409 28.541 34.529C28.3211 34.3171 28.0555 34.1583 27.7647 34.065C27.4739 33.9716 27.1656 33.9461 26.8634 33.9904C26.5613 34.0346 26.2732 34.1475 26.0214 34.3204C24.8435 34.7248 23.5537 34.6495 22.431 34.1105C21.3082 33.5716 20.4426 32.6124 20.0214 31.4404C20.0289 31.3806 20.0289 31.3201 20.0214 31.2604C18.9844 28.8548 18.6994 26.1918 19.2041 23.6212C19.7087 21.0507 20.9793 18.6931 22.8489 16.8581C24.7184 15.0232 27.0995 13.7969 29.679 13.3404C32.2584 12.8838 34.9157 13.2185 37.3015 14.3003H37.5015H37.7015C43.2415 15.3803 44.8815 20.4603 44.0215 25.0004C43.9432 25.5022 44.0589 26.015 44.3449 26.4347C44.6309 26.8544 45.0658 27.1496 45.5615 27.2604H45.9215C46.3866 27.2707 46.8408 27.1186 47.2058 26.8302C47.5708 26.5418 47.8239 26.1352 47.9215 25.6804C49.1815 18.9203 46.2815 13.2403 40.7615 11.1003C41.8324 8.91685 43.4908 7.07517 45.5505 5.78211C47.6102 4.48906 49.9896 3.79583 52.4215 3.78029C55.0655 3.77588 57.6473 4.58277 59.8182 6.09205C61.9891 7.60133 63.6448 9.74033 64.5616 12.2203L64.3416 28.6404ZM83.2416 101.381C83.9228 101.381 84.5887 101.583 85.1549 101.962C85.721 102.341 86.1619 102.879 86.4216 103.509C86.6814 104.139 86.7484 104.831 86.614 105.499C86.4796 106.167 86.15 106.78 85.6669 107.26C85.1838 107.74 84.569 108.066 83.9004 108.197C83.2318 108.327 82.5395 108.256 81.9113 107.993C81.283 107.73 80.7472 107.286 80.3716 106.717C79.996 106.149 79.7977 105.482 79.8016 104.801C79.8042 104.349 79.8958 103.902 80.0711 103.486C80.2464 103.069 80.502 102.692 80.8233 102.374C81.1446 102.056 81.5253 101.805 81.9437 101.635C82.362 101.464 82.8099 101.378 83.2616 101.381H83.2416ZM104.082 104.801C104.086 105.482 103.887 106.149 103.512 106.717C103.136 107.286 102.6 107.73 101.972 107.993C101.344 108.256 100.652 108.327 99.9829 108.197C99.3143 108.066 98.6995 107.74 98.2164 107.26C97.7333 106.78 97.4037 106.167 97.2693 105.499C97.1349 104.831 97.2019 104.139 97.4617 103.509C97.7214 102.879 98.1623 102.341 98.7284 101.962C99.2946 101.583 99.9605 101.381 100.642 101.381C101.093 101.378 101.541 101.464 101.96 101.635C102.378 101.805 102.759 102.056 103.08 102.374C103.401 102.692 103.657 103.069 103.832 103.486C104.007 103.902 104.099 104.349 104.102 104.801H104.082ZM120.622 86.3406C119.941 86.3445 119.273 86.1461 118.705 85.7706C118.137 85.395 117.693 84.8591 117.429 84.2309C117.166 83.6027 117.095 82.9104 117.225 82.2418C117.356 81.5732 117.682 80.9583 118.162 80.4753C118.642 79.9921 119.255 79.6625 119.923 79.5282C120.591 79.3938 121.284 79.4608 121.914 79.7205C122.543 79.9803 123.082 80.4212 123.461 80.9873C123.839 81.5534 124.042 82.2193 124.042 82.9006C124.042 83.806 123.685 84.675 123.048 85.319C122.412 85.963 121.547 86.33 120.642 86.3406H120.622Z" fill="white"/>
</g>
</svg>
