<svg width="64" height="64" viewBox="0 0 64 64" fill="none" xmlns="http://www.w3.org/2000/svg">
<g id="Group">
<path id="Vector" fill-rule="evenodd" clip-rule="evenodd" d="M10.6654 8C9.25088 8 7.89432 8.5619 6.89413 9.5621C5.89393 10.5623 5.33203 11.9188 5.33203 13.3333V50.6667C5.33203 52.0812 5.89393 53.4377 6.89413 54.4379C7.89432 55.4381 9.25088 56 10.6654 56H53.332C54.7465 56 56.1031 55.4381 57.1033 54.4379C58.1035 53.4377 58.6654 52.0812 58.6654 50.6667V13.3333C58.6654 11.9188 58.1035 10.5623 57.1033 9.5621C56.1031 8.5619 54.7465 8 53.332 8H10.6654ZM22.9987 23.0133C23.0579 22.5035 23.2354 22.0146 23.5171 21.5855C23.7988 21.1565 24.1768 20.7992 24.6211 20.5423C25.0654 20.2853 25.5636 20.1357 26.0759 20.1054C26.5883 20.0752 27.1006 20.1651 27.572 20.368C28.916 20.944 31.7534 22.24 35.348 24.3147C37.8733 25.7602 40.3129 27.3504 42.6547 29.0773C43.0662 29.3836 43.4005 29.7817 43.6308 30.2401C43.861 30.6985 43.981 31.2044 43.981 31.7173C43.981 32.2303 43.861 32.7362 43.6308 33.1945C43.4005 33.6529 43.0662 34.0511 42.6547 34.3573C40.3129 36.0826 37.8732 37.671 35.348 39.1147C32.8343 40.5807 30.238 41.9002 27.572 43.0667C27.1006 43.2702 26.5882 43.3605 26.0756 43.3305C25.5631 43.3005 25.0646 43.151 24.6202 42.894C24.1758 42.6369 23.7976 42.2794 23.5161 41.85C23.2345 41.4207 23.0573 40.9314 22.9987 40.4213C22.6762 37.5313 22.5195 34.6252 22.5294 31.7173C22.5294 27.5813 22.828 24.4667 22.9987 23.0133Z" fill="#F15A29"/>
</g>
</svg>
