<svg xmlns="http://www.w3.org/2000/svg" width="81" height="81" viewBox="0 0 81 81" fill="none">
  <path d="M78.2113 2.36593C77.0018 2.36593 75.5907 2.36593 74.3811 2.36593C66.1158 2.76912 58.2538 4.58344 50.7949 8.2121C41.7232 12.4455 34.0627 18.4933 28.015 26.5569C23.7816 31.9999 20.7577 38.0477 18.5402 44.4986C18.3386 44.9018 18.5402 45.1034 18.7418 45.305C20.5561 47.1193 22.3704 48.9336 24.1847 50.748C24.3863 50.9496 24.5879 51.3527 24.5879 51.7559C24.5879 52.1591 24.3863 52.5623 23.9832 52.7639C23.58 52.9655 22.9752 52.9655 22.7736 52.5623C21.7656 51.5543 20.9593 50.748 19.9513 49.74C18.7418 48.5305 17.7338 47.3209 16.5243 46.313C16.1211 45.9098 15.9195 45.305 16.1211 44.7002C18.7418 36.8381 22.572 29.5808 28.015 23.1299C33.458 16.4774 40.1105 11.236 47.5694 7.40573C54.4235 3.77707 61.8824 1.55956 69.5429 0.551605C72.7684 0.148421 75.9938 -0.0531704 79.2193 0.148421C80.2273 0.148421 80.4289 0.551605 80.6304 1.55956C81.0336 14.663 77.8082 26.7585 70.7524 38.0477C63.6967 49.1352 54.0203 57.4005 41.9248 62.6419C40.1105 63.4483 38.0946 64.053 36.0787 64.8594C35.4739 65.061 35.0707 65.061 34.6675 64.4562C32.6516 62.4403 30.4341 60.2228 28.4182 58.2069C28.015 57.8037 27.8134 57.1989 28.2166 56.5941C28.6198 55.9894 29.4261 55.9894 30.0309 56.5941C31.8452 58.4085 33.6596 60.2228 35.4739 62.0371C35.8771 62.4403 36.0787 62.4403 36.4818 62.2387C45.3519 59.2148 53.214 54.3766 59.8665 47.9257C67.7286 40.2652 72.97 31.1936 75.9938 20.9124C77.6066 15.2678 78.4129 9.42165 78.4129 3.37389C78.4129 2.97071 78.2113 2.76912 78.2113 2.36593Z" fill="#E25527"/>
  <path d="M67.1235 25.952C67.1235 32.8061 61.6805 38.2491 54.8264 38.2491C47.9723 38.2491 42.5293 32.8061 42.5293 25.952C42.5293 19.2995 47.9723 13.6549 54.6248 13.6549C61.6805 13.6549 67.1235 19.0979 67.1235 25.952ZM64.7044 26.1536C64.7044 20.509 60.2694 16.074 54.6248 16.074C48.9802 16.074 44.5452 20.509 44.5452 26.1536C44.5452 31.7982 48.9802 36.2332 54.6248 36.2332C60.2694 36.0316 64.7044 31.5966 64.7044 26.1536Z" fill="#E25527"/>
  <path d="M36.2793 77.5594C37.6905 76.7531 39.1016 75.7451 40.3112 74.7371C44.343 71.1085 46.5605 66.6735 47.5685 61.4321C47.7701 60.6257 48.1732 60.2225 48.778 60.2225C49.5844 60.2225 49.9876 60.8273 49.9876 61.6337C49.786 62.6416 49.5844 63.8512 49.1812 64.8591C46.9637 71.7133 42.9319 76.7531 36.6825 80.1801C35.2714 80.9865 34.6666 80.5833 34.465 79.1722C33.6586 74.9387 32.8523 70.5037 32.0459 66.2703C32.0459 65.8671 32.0459 65.4639 32.0459 65.2623C32.2475 64.8591 32.6507 64.6576 33.2554 64.6576C33.6586 64.6576 34.0618 65.0607 34.2634 65.4639C34.465 66.6735 34.6666 67.883 35.0698 69.2942C35.2714 72.1164 35.8761 74.7371 36.2793 77.5594Z" fill="#E25527"/>
  <path d="M3.01697 44.2971C4.22652 44.4987 5.43607 44.7003 6.44403 44.9019C9.26632 45.5067 12.0886 45.9098 14.7093 46.5146C14.9109 46.5146 14.9109 46.5146 15.1125 46.5146C15.7173 46.7162 16.1204 47.321 15.9188 47.9258C15.7173 48.5305 15.3141 48.9337 14.5077 48.7321C12.895 48.329 11.0806 48.1274 9.46791 47.7242C6.84722 47.1194 4.22652 46.7162 1.40424 46.1114C1.20265 46.1114 1.20265 46.1114 1.00105 46.1114C-0.00690543 45.9099 -0.208497 45.3051 0.194686 44.2971C1.40424 42.0796 2.81538 39.8621 4.62971 38.0478C8.45995 34.0159 13.0966 31.7984 18.338 30.5889C18.5395 30.5889 18.7411 30.5889 18.7411 30.3873C19.3459 30.1857 19.9507 30.5889 20.1523 31.1936C20.3539 31.7984 19.9507 32.4032 19.1443 32.6048C17.9348 33.008 16.5236 33.2096 15.3141 33.6127C10.0727 35.4271 6.04085 38.6525 3.01697 43.2892C3.21856 43.8939 3.21856 44.0955 3.01697 44.2971Z" fill="#E25527"/>
  <path d="M17.3301 62.2388C17.5317 62.0372 17.7333 61.6341 17.9349 61.4325C21.7651 57.6022 25.3937 53.9736 29.224 50.1433C30.6351 48.7322 31.8447 47.5226 33.2558 46.1115C33.8606 45.5067 34.4654 45.5067 35.0702 45.9099C35.4733 46.3131 35.4733 47.1194 34.8686 47.7242C30.4335 52.1592 25.9985 56.7959 21.3619 61.2309C20.7571 61.8357 20.1524 62.642 19.346 63.2468C18.9428 63.65 18.5396 63.65 18.1364 63.4484C17.5317 63.2468 17.3301 62.8436 17.3301 62.2388Z" fill="#E25527"/>
  <path d="M12.0897 67.4802C12.4928 67.6818 12.896 67.8834 13.0976 68.2866C13.2992 68.6898 13.0976 69.093 12.896 69.4961C12.6944 69.6977 12.2912 70.1009 12.0897 70.5041C9.67055 72.9232 7.25145 75.5439 4.63076 77.963C4.22757 78.1646 4.02598 78.3662 3.6228 78.3662C3.21961 78.3662 2.81643 78.1646 2.61484 77.7614C2.41325 77.1566 2.41325 76.7534 2.81643 76.3503C4.42916 74.7375 6.0419 73.1248 7.65463 71.5121C8.86419 70.3025 9.87214 69.2945 11.0817 68.085C11.4849 67.8834 11.6865 67.6818 12.0897 67.4802Z" fill="#E25527"/>
  <path d="M10.275 59.2148C11.2829 59.2148 11.8877 60.2228 11.4845 60.8276C11.2829 61.0292 11.2829 61.2308 11.0813 61.4324C8.46064 64.053 5.83995 66.6737 3.21925 69.2944L3.01766 69.496C2.41289 69.8992 1.80811 70.1008 1.40493 69.496C1.00174 69.0928 1.00174 68.2865 1.40493 67.8833C3.42084 65.8674 5.43676 63.8515 7.45268 61.8355C8.25905 61.0292 8.86382 60.4244 9.67019 59.8196C9.87178 59.4164 10.275 59.2148 10.275 59.2148Z" fill="#E25527"/>
  <path d="M21.5636 70.504C21.5636 70.7056 21.362 70.9072 21.1604 71.3103C18.3381 74.1326 15.7174 76.7533 12.8951 79.5756C12.2904 80.1804 11.6856 80.1804 11.0808 79.5756C10.6776 79.1724 10.6776 78.3661 11.2824 77.9629C14.1047 75.1406 16.7254 72.5199 19.5477 69.6976C19.9508 69.2944 20.354 69.0928 20.9588 69.2944C21.362 69.496 21.5636 69.6976 21.5636 70.504Z" fill="#E25527"/>
</svg>