<svg xmlns="http://www.w3.org/2000/svg" width="107" height="107" viewBox="0 0 107 107" fill="none">
  <path d="M102 63.2H63.2V102H102V63.2ZM26.825 5L48.65 43.8H5L26.825 5ZM82.6 43.8C87.7452 43.8 92.6797 41.7561 96.3179 38.1179C99.9561 34.4797 102 29.5452 102 24.4C102 19.2548 99.9561 14.3203 96.3179 10.6821C92.6797 7.04392 87.7452 5 82.6 5C77.4548 5 72.5203 7.04392 68.8821 10.6821C65.2439 14.3203 63.2 19.2548 63.2 24.4C63.2 29.5452 65.2439 34.4797 68.8821 38.1179C72.5203 41.7561 77.4548 43.8 82.6 43.8Z" stroke="#F15A29" stroke-width="9.7" stroke-linejoin="round"/>
  <path d="M5 63.2L43.8 102M43.8 63.2L5 102" stroke="#F15A29" stroke-width="9.7" stroke-linecap="round" stroke-linejoin="round"/>
</svg>