<svg xmlns="http://www.w3.org/2000/svg" width="251" height="251" viewBox="0 0 231 231" fill="none">
  <path d="M173.124 173.124C204.995 141.253 204.995 89.5794 173.124 57.7081C141.253 25.8368 89.5793 25.8368 57.7081 57.7081C25.8368 89.5794 25.8368 141.253 57.7081 173.124C89.5793 204.995 141.253 204.995 173.124 173.124Z" fill="#F15A29"/>
  <path d="M163.533 163.533C190.107 136.959 190.107 93.8737 163.533 67.2997C136.959 40.7257 93.8736 40.7257 67.2996 67.2997C40.7256 93.8737 40.7256 136.959 67.2996 163.533C93.8736 190.107 136.959 190.107 163.533 163.533Z" fill="#242424"/>
  <path d="M137.246 92.0803L140.76 88.5663L143.927 91.7331L147.093 88.5663L137.593 79.068L134.426 82.2347L137.593 85.4014L133.783 89.2116C129.92 86.4201 125.537 84.5001 120.879 83.5603V78.2649H125.358V73.7866H102.966V78.2649H107.444V83.5603C102.787 84.5001 98.4037 86.4201 94.5409 89.2116L90.7306 85.4014L93.8974 82.2347L90.7306 79.068L81.2305 88.5681L84.3972 91.7348L87.5639 88.5681L91.0778 92.082C84.4743 98.34 80.5747 106.978 80.5747 116.478C80.5747 135.08 95.642 150.214 114.162 150.214C132.682 150.214 147.749 135.08 147.749 116.478C147.749 107.433 144.183 98.6539 137.246 92.0803ZM111.925 78.2614H116.403V82.9641C115.661 82.915 114.914 82.8887 114.164 82.8887C113.413 82.8887 112.666 82.915 111.925 82.9641V78.2614ZM114.164 145.734C98.1127 145.734 85.0547 132.609 85.0547 116.476C85.0547 100.425 98.1127 87.367 114.164 87.367C130.215 87.367 143.273 100.425 143.273 116.476C143.271 132.608 130.213 145.734 114.164 145.734Z" fill="white"/>
  <path d="M116.403 110.142V91.8452H111.925V110.142C109.319 111.066 107.447 113.556 107.447 116.474C107.447 120.177 110.461 123.192 114.164 123.192C117.867 123.192 120.882 120.177 120.882 116.474C120.882 113.556 119.009 111.068 116.403 110.142ZM114.164 118.715C112.93 118.715 111.925 117.71 111.925 116.476C111.925 115.241 112.93 114.237 114.164 114.237C115.399 114.237 116.403 115.241 116.403 116.476C116.403 117.71 115.399 118.715 114.164 118.715Z" fill="white"/>
  <path d="M111.924 136.626H116.403V141.105H111.924V136.626Z" fill="white"/>
  <path d="M89.5337 114.237H94.012V118.715H89.5337V114.237Z" fill="white"/>
  <path d="M134.316 114.237H138.794V118.715H134.316V114.237Z" fill="white"/>
  <path d="M98.3303 135.474L95.1636 132.308L98.3303 129.141L101.497 132.308L98.3303 135.474Z" fill="white"/>
  <path d="M129.995 103.811L126.829 100.644L129.995 97.4773L133.162 100.644L129.995 103.811Z" fill="white"/>
  <path d="M129.995 135.476L126.829 132.309L129.995 129.143L133.162 132.309L129.995 135.476Z" fill="white"/>
  <path d="M98.3303 103.809L95.1636 100.642L98.3303 97.4756L101.497 100.642L98.3303 103.809Z" fill="white"/>
</svg>