<svg width="18" height="19" viewBox="0 0 18 19" fill="none" xmlns="http://www.w3.org/2000/svg">
<path d="M17.9915 14.7303H16.7768C16.7111 15.2994 16.339 16.0107 15.4088 16.0107C14.5552 16.0107 13.9424 15.4198 13.3514 14.5224C14.3273 13.7764 15.1161 12.8135 15.6556 11.7099C16.195 10.6063 16.4702 9.39236 16.4594 8.16405C16.4594 3.28313 12.4321 0 8.21876 0C4.06014 0 0 3.31596 0 8.17499C0 12.9902 4.06014 16.3062 8.21876 16.3062C8.94105 16.3062 9.66334 16.2077 10.3528 16.0217C11.1626 17.4115 12.2461 18.6044 14.2926 18.6044C17.6851 18.6044 18.0681 15.4745 17.9915 14.7303ZM12.0272 12.3446C11.2283 11.1298 10.2105 10.1777 8.24065 10.1777C6.97118 10.1777 5.98624 10.5936 5.37339 11.1189L5.8768 12.1257C6.13945 12.0053 6.41304 11.9615 6.69758 11.9615C8.17499 11.9615 8.93011 13.242 9.57579 14.5114C9.15993 14.6318 8.71123 14.6865 8.21876 14.6865C5.09979 14.6865 3.75371 12.4868 3.75371 8.17499C3.75371 3.84126 5.09979 1.61968 8.21876 1.61968C11.3815 1.61968 12.7385 3.84126 12.7385 8.17499C12.7276 9.90411 12.5087 11.3049 12.0272 12.3446Z" fill="white"/>
</svg>
