<svg xmlns="http://www.w3.org/2000/svg" width="134" height="98" viewBox="0 0 134 98" fill="none">
  <path d="M91.2358 0.34082C92.8489 0.34082 94.396 0.981643 95.5367 2.12231C96.6774 3.26298 97.3182 4.81006 97.3182 6.42321V31.9692L129.026 9.76852C129.482 9.44893 130.017 9.26063 130.572 9.22415C131.128 9.18768 131.683 9.30443 132.176 9.56168C132.67 9.81894 133.084 10.2068 133.372 10.683C133.661 11.1592 133.813 11.7055 133.812 12.2623V85.7375C133.813 86.2943 133.661 86.8406 133.372 87.3168C133.084 87.793 132.67 88.1809 132.176 88.4381C131.683 88.6954 131.128 88.8121 130.572 88.7757C130.017 88.7392 129.482 88.5509 129.026 88.2313L97.3182 66.0306V91.5766C97.3182 93.1898 96.6774 94.7368 95.5367 95.8775C94.396 97.0182 92.8489 97.659 91.2358 97.659H6.08239C4.46924 97.659 2.92216 97.0182 1.78149 95.8775C0.640821 94.7368 0 93.1898 0 91.5766V6.42321C0 4.81006 0.640821 3.26298 1.78149 2.12231C2.92216 0.981643 4.46924 0.34082 6.08239 0.34082H91.2358ZM85.1534 12.5056H12.1648V85.4942H85.1534V12.5056ZM38.9273 29.7127C39.3902 29.7114 39.8438 29.8422 40.235 30.0898L66.7238 46.9441C67.0692 47.1638 67.3536 47.4671 67.5506 47.8259C67.7476 48.1848 67.8509 48.5875 67.8509 48.9969C67.8509 49.4062 67.7476 49.809 67.5506 50.1678C67.3536 50.5266 67.0692 50.83 66.7238 51.0497L40.235 67.9161C39.866 68.1513 39.4405 68.2827 39.0032 68.2963C38.5659 68.31 38.133 68.2055 37.7501 67.9938C37.3672 67.7821 37.0484 67.4711 36.8274 67.0935C36.6064 66.7159 36.4914 66.2856 36.4943 65.8481V32.1517C36.4943 31.5064 36.7506 30.8876 37.2069 30.4313C37.6632 29.9751 38.282 29.7127 38.9273 29.7127ZM121.648 29.7796L97.3182 46.8103V51.1774L121.648 68.2081V29.7796Z" fill="#F15A29"/>
</svg>