<svg width="122" height="122" viewBox="0 0 123 123" fill="none" xmlns="http://www.w3.org/2000/svg">
<g id="fi_1336494" clip-path="url(#clip0_208_3789)">
<path id="Vector" d="M48.5301 86.1964C48.0655 86.1964 47.5975 86.0366 47.2156 85.7114L34.0752 74.5223C33.622 74.1359 33.3613 73.5716 33.3613 72.9755C33.3613 72.3806 33.6231 71.8163 34.0752 71.4299L47.2156 60.2409C48.0689 59.5133 49.3505 59.6165 50.078 60.4698C50.8044 61.3242 50.7024 62.6058 49.848 63.3322L38.5241 72.9755L49.848 82.6189C50.7024 83.3464 50.8044 84.628 50.078 85.4813C49.6757 85.9539 49.1046 86.1964 48.5301 86.1964Z" fill="white"/>
<path id="Vector_2" d="M74.4701 86.1964C73.8956 86.1964 73.3245 85.9539 72.9233 85.4813C72.1958 84.628 72.299 83.3464 73.1522 82.6189L84.4761 72.9755L73.1522 63.3322C72.299 62.6058 72.1958 61.3242 72.9233 60.4698C73.6497 59.6165 74.9325 59.5133 75.7846 60.2409L88.925 71.4299C89.3783 71.8163 89.6389 72.3806 89.6389 72.9755C89.6389 73.5716 89.3783 74.1359 88.925 74.5223L75.7846 85.7114C75.4027 86.0366 74.9347 86.1964 74.4701 86.1964Z" fill="white"/>
<path id="Vector_3" d="M56.8473 94.589C56.708 94.589 56.5675 94.5743 56.4258 94.5448C55.3289 94.3137 54.6263 93.236 54.8575 92.1391L63.047 53.2562C63.2781 52.1593 64.3547 51.4568 65.4527 51.6879C66.5496 51.9191 67.2522 52.9956 67.021 54.0937L58.8315 92.9765C58.6298 93.9329 57.7868 94.589 56.8473 94.589Z" fill="white"/>
<path id="Vector_4" d="M109.366 115.772H13.6344C6.11691 115.772 0 109.656 0 102.138V20.8864C0 13.3689 6.11691 7.25195 13.6344 7.25195H109.366C116.883 7.25195 123 13.3689 123 20.8864V102.138C123 109.656 116.883 115.772 109.366 115.772ZM13.6344 11.3133C8.35608 11.3133 4.06132 15.608 4.06132 20.8864V102.138C4.06132 107.416 8.35608 111.711 13.6344 111.711H109.366C114.644 111.711 118.939 107.416 118.939 102.138V20.8864C118.939 15.608 114.644 11.3133 109.366 11.3133H13.6344Z" fill="white"/>
<path id="Vector_5" d="M120.969 39.7682H2.03066C0.908811 39.7682 0 38.8594 0 37.7376C0 36.6169 0.908811 35.7069 2.03066 35.7069H120.969C122.091 35.7069 123 36.6169 123 37.7376C123 38.8594 122.091 39.7682 120.969 39.7682Z" fill="white"/>
<path id="Vector_6" d="M34.6948 30.0522C31.1525 30.0522 28.2686 27.1683 28.2686 23.626C28.2686 20.0825 31.1525 17.1997 34.6948 17.1997C38.2383 17.1997 41.1211 20.0825 41.1211 23.626C41.1211 27.1683 38.2383 30.0522 34.6948 30.0522ZM34.6948 21.261C33.3917 21.261 32.3299 22.3217 32.3299 23.626C32.3299 24.9303 33.3917 25.9909 34.6948 25.9909C35.9991 25.9909 37.0598 24.9303 37.0598 23.626C37.0598 22.3217 35.9991 21.261 34.6948 21.261Z" fill="white"/>
<path id="Vector_7" d="M14.9517 29.9899C11.4082 29.9899 8.52539 27.1071 8.52539 23.5636C8.52539 20.0201 11.4082 17.1373 14.9517 17.1373C18.4951 17.1373 21.3779 20.0201 21.3779 23.5636C21.3779 27.1071 18.4951 29.9899 14.9517 29.9899ZM14.9517 21.1987C13.6485 21.1987 12.5867 22.2604 12.5867 23.5636C12.5867 24.8679 13.6485 25.9285 14.9517 25.9285C16.256 25.9285 17.3166 24.8679 17.3166 23.5636C17.3166 22.2604 16.256 21.1987 14.9517 21.1987Z" fill="white"/>
<path id="Vector_8" d="M54.4408 30.1125C50.8984 30.1125 48.0156 27.2297 48.0156 23.6862C48.0156 20.1439 50.8984 17.2611 54.4408 17.2611C57.9842 17.2611 60.867 20.1439 60.867 23.6862C60.867 27.2297 57.9842 30.1125 54.4408 30.1125ZM54.4408 21.3213C53.1376 21.3213 52.0769 22.382 52.0769 23.6862C52.0769 24.9905 53.1376 26.0512 54.4408 26.0512C55.7451 26.0512 56.8057 24.9905 56.8057 23.6862C56.8057 22.382 55.7451 21.3213 54.4408 21.3213Z" fill="white"/>
</g>
<defs>
<clipPath id="clip0_208_3789">
<rect width="123" height="123" fill="white"/>
</clipPath>
</defs>
</svg>
